<?xml version="1.0" encoding="UTF-8" standalone="no"?>
<svg
   version="1.0"
   width="600mm"
   height="290mm"
   viewBox="0 0 1700.7874 822.04723"
   preserveAspectRatio="xMidYMid meet"
   id="svg6277"
   sodipodi:docname="winteriscoming_planchemilieu.svg"
   inkscape:version="1.2.2 (732a01da63, 2022-12-09)"
   xmlns:inkscape="http://www.inkscape.org/namespaces/inkscape"
   xmlns:sodipodi="http://sodipodi.sourceforge.net/DTD/sodipodi-0.dtd"
   xmlns="http://www.w3.org/2000/svg"
   xmlns:svg="http://www.w3.org/2000/svg"
   xmlns:rdf="http://www.w3.org/1999/02/22-rdf-syntax-ns#"
   xmlns:cc="http://creativecommons.org/ns#"
   xmlns:dc="http://purl.org/dc/elements/1.1/">
  <metadata
     id="metadata6283">
    <rdf:RDF>
      <cc:Work
         rdf:about="">
        <dc:format>image/svg+xml</dc:format>
        <dc:type
           rdf:resource="http://purl.org/dc/dcmitype/StillImage" />
        <dc:title />
      </cc:Work>
    </rdf:RDF>
  </metadata>
  <defs
     id="defs6281" />
  <sodipodi:namedview
     pagecolor="#ffffff"
     bordercolor="#666666"
     borderopacity="1"
     objecttolerance="10"
     gridtolerance="10"
     guidetolerance="10"
     inkscape:pageopacity="0"
     inkscape:pageshadow="2"
     inkscape:window-width="1920"
     inkscape:window-height="1001"
     id="namedview6279"
     showgrid="false"
     units="mm"
     inkscape:zoom="0.71417784"
     inkscape:cx="635.69601"
     inkscape:cy="378.7572"
     inkscape:window-x="-9"
     inkscape:window-y="-9"
     inkscape:window-maximized="1"
     inkscape:current-layer="g6275"
     inkscape:showpageshadow="2"
     inkscape:pagecheckerboard="0"
     inkscape:deskcolor="#d1d1d1"
     inkscape:document-units="mm" />
  <g
     transform="matrix(0.1,0,0,-0.1,0,822.04724)"
     id="g6275"
     style="fill:#000000;stroke:none">
    <rect
       style="fill:#ffffff;stroke:#ff0000;stroke-width:21.2693;stroke-opacity:1"
       id="rect9566"
       width="11684.162"
       height="6199.0088"
       x="10.63465"
       y="-8209.8379"
       transform="scale(1,-1)" />
    <g
       id="g392"
       transform="translate(-566.92542)">
      <g
         id="g6917"
         transform="matrix(0.36421208,0,0,0.36421208,6614.5216,-470.78643)">
        <path
           d="m 4975,14026.89 c -16,-6 -46,-20 -65,-32 -28,-17 -51,-22 -110,-22 -62,0 -82,-4 -115,-24 -35,-21 -48,-24 -101,-19 -52,5 -70,2 -117,-20 -30,-14 -70,-28 -88,-32 -60,-13 -85,-33 -117,-93 -25,-47 -41,-64 -82,-86 -55,-30 -64,-42 -74,-98 -5,-27 -17,-45 -41,-64 -22,-16 -49,-55 -72,-100 -25,-51 -47,-81 -69,-95 -40,-24 -74,-91 -74,-145 0,-22 7,-63 15,-92 15,-48 14,-53 -6,-92 l -22,-42 22,-54 c 13,-31 20,-62 16,-74 -10,-31 3,-59 36,-75 25,-14 29,-21 29,-59 0,-68 43,-111 139,-141 l 24,-7 -21,35 c -12,19 -22,45 -22,58 1,19 6,13 24,-25 27,-54 42,-73 52,-63 4,4 -1,16 -10,26 -17,19 -43,102 -26,85 4,-5 36,-43 69,-84 l 61,-75 v -77 c 0,-92 -4,-98 -109,-153 -65,-34 -111,-74 -111,-96 0,-14 31,-39 48,-39 15,1 15,2 0,11 -39,22 -4,64 91,109 52,24 53,24 67,5 37,-50 25,-134 -26,-192 -17,-19 -30,-40 -30,-49 0,-8 -9,-40 -20,-71 -24,-68 -25,-118 -5,-193 9,-34 15,-101 15,-177 0,-116 1,-123 26,-152 14,-17 37,-66 50,-110 20,-67 31,-85 63,-110 69,-55 105,-65 231,-65 63,-1 131,1 150,4 35,5 35,5 32,-30 -2,-19 -8,-37 -13,-38 -5,-2 -17,-11 -26,-20 -13,-13 -15,-32 -10,-112 l 6,-95 -54,-55 c -29,-30 -66,-77 -82,-105 -19,-32 -38,-51 -54,-55 -17,-4 -25,-14 -27,-32 -4,-35 -105,-130 -269,-253 -69,-52 -121,-95 -115,-95 6,0 49,9 94,20 149,35 311,60 431,66 l 117,7 v -31 c 0,-20 -14,-49 -44,-89 -83,-109 0,-70 130,61 198,199 320,303 494,419 189,125 392,213 580,251 93,18 299,32 285,19 -5,-5 -98,-31 -205,-57 -107,-26 -228,-61 -268,-78 -84,-35 -204,-111 -246,-157 l -30,-31 h 24 c 13,0 94,18 179,41 109,29 191,44 271,50 63,4 127,11 143,15 15,3 27,4 27,1 0,-10 -115,-39 -233,-58 -131,-21 -169,-37 -272,-114 -38,-28 -86,-62 -105,-75 -43,-29 -100,-81 -100,-92 0,-14 59,20 161,93 131,94 161,105 322,124 75,9 169,25 209,35 266,72 247,71 398,24 50,-15 90,-31 90,-36 0,-4 -67,-8 -148,-8 -105,0 -182,-6 -263,-20 -140,-25 -302,-59 -308,-66 -14,-14 20,-13 130,2 143,19 333,22 400,6 25,-6 90,-14 145,-18 54,-4 109,-12 120,-18 12,-6 67,-54 122,-107 l 101,-96 26,-89 c 28,-93 45,-121 65,-109 42,26 -44,233 -157,377 -37,48 -80,102 -94,120 -14,18 -54,86 -88,152 -59,111 -61,118 -38,112 34,-8 39,0 83,134 3,9 -12,35 -35,62 -23,25 -41,53 -41,61 0,42 -10,47 -51,26 -46,-23 -70,-15 -94,31 -16,31 -29,37 -40,20 -3,-5 -11,-10 -17,-10 -16,0 -4,177 15,223 14,31 22,37 57,43 63,10 82,50 43,95 -12,14 -11,21 9,52 27,43 38,46 38,12 0,-25 31,-65 50,-65 15,0 12,9 -10,37 -29,37 -25,50 24,103 44,47 66,98 66,153 0,19 5,27 18,27 10,0 27,7 38,15 19,14 18,14 -3,15 -41,0 -30,50 27,118 28,33 50,70 50,82 0,13 -18,39 -45,64 -48,44 -46,35 -47,196 0,37 22,122 38,145 21,29 17,53 -12,71 -14,10 -45,42 -68,73 -33,43 -41,61 -35,76 17,43 10,76 -24,110 -32,32 -33,36 -29,97 3,57 0,70 -38,148 -24,48 -45,109 -50,141 -11,78 -31,104 -126,165 -76,49 -82,55 -102,111 -31,85 -48,98 -137,99 h -72 l -103,68 c -58,39 -123,74 -151,81 -60,16 -69,23 -109,85 -49,76 -68,85 -185,86 -92,0 -104,3 -150,29 -45,27 -59,30 -174,35 -78,3 -137,1 -156,-6 z m 283,-50 c 20,-8 48,-26 63,-40 25,-24 26,-24 66,-8 74,29 166,0 215,-67 23,-30 37,-109 19,-109 -6,0 -11,6 -11,13 0,22 -49,117 -60,117 -7,0 -5,-10 4,-27 24,-48 28,-89 13,-126 -19,-45 -41,-60 -30,-20 21,78 -2,150 -58,179 -35,18 -89,18 -114,0 -18,-13 -18,-14 2,-24 24,-13 47,-62 41,-89 -3,-14 -8,-9 -20,18 -23,52 -38,58 -31,13 l 6,-37 -51,7 c -37,5 -52,3 -52,-5 0,-7 -11,-9 -34,-5 -30,6 -34,4 -30,-12 5,-16 -30,-61 -40,-51 -2,2 -6,22 -8,44 -3,43 -12,38 100,61 15,3 29,17 37,39 30,71 -20,123 -129,135 l -61,7 63,2 c 37,0 78,-5 100,-15 z m -471,-89 c -25,-22 -77,-35 -77,-20 0,7 81,45 95,44 6,0 -3,-11 -18,-24 z m -168,-1 c 38,-8 39,-14 2,-35 -22,-13 -45,-16 -96,-11 -73,5 -86,-10 -18,-22 21,-3 45,-10 53,-16 13,-9 13,-11 0,-20 -8,-6 -26,-13 -40,-16 -49,-10 -75,-30 -100,-76 -32,-58 -54,-83 -110,-121 l -44,-31 28,-7 c 17,-5 37,-4 48,2 21,11 87,108 107,157 8,19 24,35 42,41 l 29,10 v -75 c 0,-72 -2,-78 -35,-117 -34,-39 -46,-65 -25,-52 21,13 9,-15 -15,-33 -43,-34 -28,-32 31,3 31,19 68,36 82,40 24,5 30,16 51,88 18,60 34,91 58,116 39,39 50,36 34,-10 -14,-41 -14,-82 -1,-74 7,4 9,-2 4,-19 -3,-14 -3,-38 0,-52 6,-21 12,-25 31,-21 48,9 38,0 -114,-98 -26,-16 -67,-47 -92,-67 -73,-60 -159,-88 -159,-52 0,13 -10,15 -67,9 -81,-9 -98,-17 -118,-55 -21,-40 -18,-86 9,-149 21,-48 25,-52 34,-35 10,17 11,15 12,-13 0,-18 -11,-48 -25,-69 -28,-41 -29,-51 -15,-89 12,-30 95,-136 117,-149 22,-12 10,7 -43,69 -59,70 -68,97 -44,127 l 19,23 27,-33 c 24,-30 31,-33 61,-27 30,5 34,4 29,-12 -25,-84 -14,-124 49,-181 38,-34 45,-47 46,-79 0,-35 1,-36 11,-15 16,32 -2,121 -42,212 -25,57 -29,74 -19,86 19,23 35,16 78,-33 23,-27 41,-43 41,-37 0,6 -16,29 -35,52 -40,46 -37,52 35,67 19,4 51,16 72,27 l 36,21 30,-21 c 48,-34 80,-43 118,-33 33,9 35,8 53,-28 18,-34 51,-72 51,-57 0,3 -9,20 -20,38 -26,43 -25,63 2,82 28,20 38,20 38,2 0,-21 48,-74 84,-93 24,-13 27,-18 14,-21 -23,-5 -23,-14 3,-46 22,-28 49,-35 49,-12 0,24 18,28 52,10 30,-16 31,-17 13,-30 -10,-8 -25,-14 -32,-14 -16,0 -15,3 -4,-38 13,-42 -4,-42 -18,1 -9,27 -53,67 -75,67 -12,0 -6,-36 11,-60 l 16,-25 -28,25 c -26,23 -27,23 -16,3 18,-36 13,-35 -25,5 -24,24 -34,30 -29,17 5,-17 3,-16 -21,5 -18,17 -28,21 -31,12 -3,-6 -8,-10 -13,-7 -5,3 -29,7 -54,9 -44,5 -59,-5 -35,-20 8,-4 6,-10 -6,-17 -12,-6 -20,-6 -25,3 -6,9 -13,9 -28,1 -28,-15 -37,-14 -23,3 9,11 7,15 -7,18 -11,3 -27,1 -36,-4 -10,-6 -16,-5 -16,2 0,6 -4,8 -10,5 -5,-3 -10,-14 -10,-24 0,-9 -7,-26 -15,-37 -15,-18 -15,-18 -9,9 5,22 3,26 -9,21 -9,-3 -26,0 -39,7 l -23,12 22,-25 c 22,-23 22,-25 5,-42 -16,-16 -16,-17 3,-11 19,6 19,6 3,-8 -25,-20 -23,-24 12,-32 32,-7 36,-18 20,-61 -16,-41 -5,-39 26,5 16,22 32,41 37,41 4,0 7,-16 7,-36 0,-40 14,-38 25,3 7,28 32,63 45,63 5,0 -1,-17 -11,-37 -10,-21 -19,-44 -18,-53 0,-8 11,9 24,38 16,36 32,55 51,62 15,6 30,8 33,4 3,-4 0,-9 -6,-11 -7,-3 -13,-9 -13,-15 0,-6 -14,-28 -31,-49 -31,-39 -31,-59 -1,-59 13,0 14,2 4,9 -12,7 -12,12 -1,30 16,24 29,27 29,7 0,-8 5,-18 11,-22 8,-4 9,1 4,16 -11,35 13,70 47,70 17,0 27,-4 23,-10 -3,-5 2,-10 12,-10 12,0 19,-8 20,-20 1,-11 -2,-20 -8,-20 -5,0 -9,5 -9,12 0,9 -3,9 -12,-1 -11,-10 -8,-16 12,-33 20,-16 35,-19 72,-16 39,4 46,3 37,-8 -14,-17 -113,-46 -133,-38 -9,3 -24,3 -33,0 -32,-13 8,-26 79,-26 77,0 112,11 151,48 30,29 34,42 12,42 -15,0 -222,104 -239,121 -6,5 -1,9 12,9 12,0 22,-4 22,-9 0,-5 32,-12 72,-16 61,-6 69,-9 55,-20 -15,-11 -11,-14 30,-20 26,-3 58,-13 71,-22 20,-12 23,-20 17,-53 -6,-34 -3,-41 19,-55 29,-19 83,-21 134,-6 30,9 34,8 44,-14 16,-35 -5,-78 -73,-151 -73,-79 -84,-113 -70,-212 13,-89 41,-343 41,-369 0,-12 3,-14 10,-7 6,6 14,44 17,84 5,58 8,69 15,50 9,-26 6,-66 -19,-207 -9,-51 -20,-93 -24,-93 -4,0 -5,16 -2,36 7,41 -16,202 -30,211 -5,3 -6,-18 -2,-53 5,-40 4,-56 -3,-49 -5,6 -12,19 -15,30 -3,11 -5,-1 -6,-27 -1,-50 -21,-79 -21,-31 0,22 -2,25 -10,13 -8,-13 -10,-12 -10,3 0,10 -4,15 -10,12 -6,-4 -10,8 -11,27 0,18 -3,27 -6,21 -2,-7 -9,-13 -14,-13 -6,0 -7,4 -4,10 10,15 -13,119 -36,167 -26,53 -36,51 -14,-2 9,-20 14,-39 12,-42 -3,-2 -9,10 -15,26 -16,44 -26,38 -18,-10 4,-26 3,-38 -4,-34 -5,3 -10,12 -10,20 0,8 -5,17 -11,21 -8,4 -9,-3 -4,-26 5,-23 4,-30 -4,-26 -6,4 -11,14 -11,22 0,8 -4,14 -9,14 -4,0 -6,-12 -4,-27 4,-24 3,-25 -7,-10 -6,9 -15,15 -19,12 -5,-2 -34,29 -65,70 -31,41 -59,75 -61,75 -9,0 19,-56 47,-92 25,-33 28,-44 27,-115 0,-60 -2,-72 -10,-54 -5,13 -9,33 -8,45 4,41 -1,66 -12,66 -8,0 -9,-18 -6,-57 4,-38 3,-49 -2,-33 -8,21 -9,18 -9,-20 0,-25 3,-54 8,-65 7,-16 9,-12 9,19 l 1,39 20,-26 c 21,-27 26,-42 11,-32 -18,10 -23,-37 -11,-99 11,-55 11,-65 -5,-96 -19,-37 -22,-98 -6,-129 24,-45 0,-36 -29,11 l -17,29 -31,-53 c -16,-30 -37,-60 -46,-67 -14,-12 -16,-10 -17,10 -1,21 -3,19 -16,-11 -17,-40 -51,-80 -68,-80 -6,0 -26,-16 -45,-35 -41,-43 -64,-47 -50,-9 15,37 13,40 -13,16 -41,-39 -80,-46 -129,-24 -69,30 -101,70 -126,154 -12,41 -30,86 -41,99 -15,19 -20,49 -26,154 l -7,130 35,38 c 19,20 43,37 52,37 17,0 17,-1 0,-20 -19,-21 -15,-24 22,-14 17,5 22,12 18,28 -11,46 30,66 135,66 58,0 82,-4 86,-13 5,-14 25,-15 61,-3 31,10 63,-10 63,-39 0,-18 4,-23 16,-18 8,3 25,-3 37,-15 26,-24 87,-55 87,-45 0,4 -17,24 -37,45 -26,27 -32,38 -21,38 9,0 20,-4 23,-10 15,-24 27,-8 21,28 -16,93 -18,100 -30,96 -7,-3 -21,11 -31,30 -25,46 -30,39 -9,-12 9,-23 14,-47 11,-54 -2,-7 -15,21 -27,62 -28,86 -37,101 -50,80 -9,-13 -10,-13 -10,0 0,12 -2,12 -8,2 -6,-9 -13,1 -21,29 -7,22 -11,42 -9,44 2,1 18,10 36,19 17,9 32,20 32,24 0,4 7,16 16,27 14,19 16,19 50,-20 l 35,-40 -17,35 c -24,50 -87,141 -114,165 -34,30 -60,94 -60,148 0,26 -4,47 -8,47 -4,0 -17,-19 -29,-43 -11,-24 -37,-56 -57,-73 -113,-91 -116,-94 -116,-135 0,-37 -2,-39 -31,-39 -21,0 -40,10 -60,30 -34,33 -33,52 4,104 18,26 19,29 4,38 -23,12 -23,85 0,110 11,12 12,18 4,18 -22,0 -90,72 -102,107 -17,52 -8,63 40,51 42,-11 52,-22 27,-31 -8,-3 -19,-15 -25,-25 -8,-16 -6,-26 10,-46 27,-34 40,-33 33,3 -5,21 -1,34 15,50 26,26 41,27 41,1 0,-11 6,-20 13,-20 8,0 7,-4 -3,-10 -24,-16 15,-41 53,-33 23,5 29,3 25,-8 -2,-8 -19,-15 -36,-17 -34,-3 -45,-22 -13,-22 13,0 21,-8 23,-22 4,-19 9,-13 31,32 15,30 27,68 27,83 0,38 -23,80 -52,93 -138,64 -175,74 -184,50 -10,-26 -32,-18 -39,13 -4,19 0,41 10,61 9,17 15,43 13,58 l -3,27 -22,-36 c -25,-39 -29,-79 -13,-110 7,-12 7,-19 1,-19 -5,0 -19,25 -30,55 -30,79 -60,135 -72,135 -15,0 -3,-63 21,-113 l 19,-38 -22,7 c -22,6 -22,6 2,-19 l 23,-26 -23,-32 c -14,-20 -23,-48 -24,-71 0,-45 -15,-49 -45,-10 -19,23 -21,35 -16,79 6,51 5,53 -21,59 -16,3 -34,7 -40,10 -16,4 -17,36 -3,50 7,7 3,24 -15,55 -30,54 -31,69 -4,103 20,25 22,26 35,9 13,-16 14,-15 8,12 -4,17 -15,49 -26,73 -22,53 -23,123 -3,162 13,24 19,28 37,21 17,-6 25,-20 31,-52 12,-63 31,-77 24,-17 -4,29 -1,65 8,95 8,26 15,62 15,79 0,44 51,107 121,150 61,37 73,53 26,35 -31,-12 -40,-2 -31,34 7,27 41,59 93,87 21,11 38,34 52,65 30,71 45,83 100,83 32,0 61,8 90,25 44,25 89,31 148,19 z m 513,-176 c 5,-62 13,-86 63,-183 51,-98 57,-115 48,-141 -10,-28 -10,-28 -22,25 -6,30 -27,80 -46,112 -20,32 -41,74 -48,94 l -13,36 -32,-40 c -18,-23 -38,-41 -44,-41 -6,0 6,18 26,40 45,50 49,104 11,165 -36,58 -31,71 14,35 37,-30 39,-34 43,-102 z m -418,103 c 4,-5 -16,-17 -42,-25 -46,-16 -85,-47 -111,-91 -12,-19 -12,-19 -8,2 3,12 1,23 -5,25 -5,2 1,16 13,32 36,46 137,83 153,57 z m 661,-91 c 4,-6 -13,-10 -45,-10 -53,0 -97,-17 -121,-46 -12,-16 -12,-17 4,-11 21,8 21,3 -3,-48 l -18,-40 -15,34 c -22,50 -1,91 58,117 35,16 131,18 140,4 z m 413,-34 c 34,-18 64,-50 91,-99 30,-54 27,-55 -24,-8 -24,22 -48,41 -53,41 -11,0 -72,60 -72,71 0,13 27,11 58,-5 z m -452,-33 c 3,-16 7,-34 10,-40 2,-7 0,-13 -5,-13 -5,0 -12,11 -15,24 -3,13 -9,31 -12,40 -3,9 -1,16 5,16 6,0 13,-12 17,-27 z m 439,-85 c 8,-29 15,-65 15,-82 -1,-27 -3,-24 -21,24 -12,30 -23,70 -26,89 -8,51 14,30 32,-31 z m 395,12 c 11,-15 20,-31 20,-34 0,-8 -99,67 -99,76 -2,17 61,-17 79,-42 z m -427,-37 c 3,-10 10,-33 15,-50 6,-18 9,-33 6,-33 -2,0 -13,15 -24,33 -21,33 -26,67 -11,67 5,0 11,-8 14,-17 z m 188,-128 30,-60 -36,40 c -39,43 -59,76 -69,115 -7,24 -6,24 18,-5 14,-16 40,-57 57,-90 z m -974,63 c -18,-24 -40,-59 -47,-78 -19,-49 -30,-59 -30,-25 0,34 41,108 72,130 39,26 40,16 5,-27 z m -199,-25 c -28,-54 -119,-181 -130,-182 -5,-1 -8,17 -8,39 0,42 -14,54 -25,20 -8,-26 -25,-26 -18,0 3,11 27,32 54,47 27,14 59,41 70,60 22,35 69,77 77,68 3,-2 -6,-26 -20,-52 z m 1604,-73 c 37,-34 52,-56 59,-89 12,-55 7,-61 -19,-19 -12,18 -55,66 -96,106 -42,40 -76,77 -76,83 0,16 79,-32 132,-81 z m -1327,-18 c -7,-7 -55,39 -55,52 0,5 13,-3 30,-19 16,-16 28,-31 25,-33 z m -185,-16 c 0,-2 -26,-13 -58,-24 -32,-12 -77,-38 -100,-58 -49,-42 -57,-32 -9,13 47,46 98,73 135,73 17,0 32,-2 32,-4 z m 135,-36 c 4,-6 -10,-10 -34,-10 -23,0 -41,5 -41,10 0,6 15,10 34,10 19,0 38,-4 41,-10 z m 230,-10 c -8,-25 -4,-25 46,1 56,28 60,17 6,-15 -51,-29 -89,-70 -118,-128 -11,-22 -22,-38 -24,-36 -2,1 8,37 22,78 19,55 22,75 12,79 -8,2 -3,10 12,22 32,25 52,25 44,-1 z m 532,-21 c 18,-12 33,-24 33,-28 0,-4 -27,-3 -60,2 -33,5 -60,14 -60,19 0,5 5,6 10,3 6,-3 10,-2 10,4 0,5 -4,13 -10,16 -5,3 -10,10 -10,15 0,12 43,-4 87,-31 z m -461,-30 c -81,-71 -108,-153 -81,-244 12,-43 26,-63 67,-99 81,-71 119,-61 126,32 3,45 -1,70 -17,107 -24,55 -20,73 6,26 10,-18 23,-40 30,-49 11,-15 12,-14 13,10 0,19 4,26 14,22 8,-3 17,-1 21,5 11,19 22,12 18,-11 -3,-18 5,-28 39,-48 24,-14 47,-27 51,-29 5,-2 24,12 43,30 34,33 42,33 24,0 -5,-10 -23,-24 -40,-31 -16,-7 -30,-16 -30,-21 0,-13 36,-29 64,-29 33,0 33,-10 0,-41 -36,-33 -47,-66 -39,-117 7,-49 22,-51 45,-6 8,16 16,31 18,34 2,2 7,-2 12,-10 9,-14 18,14 40,124 14,67 9,104 -25,181 -27,61 -22,69 18,28 56,-59 73,-165 41,-254 -23,-65 -21,-119 6,-167 13,-23 21,-45 17,-48 -4,-4 -29,-9 -57,-12 -48,-4 -52,-3 -85,32 -34,37 -55,88 -55,138 v 27 l -50,-31 c -27,-17 -50,-34 -50,-38 0,-12 71,-100 80,-100 6,0 10,-16 10,-35 0,-71 50,-138 130,-174 80,-37 136,-22 164,42 13,29 14,30 15,9 2,-64 -76,-119 -150,-107 -21,4 -57,20 -79,36 l -41,30 15,-28 c 8,-15 44,-56 80,-90 46,-45 67,-72 71,-96 15,-78 -50,-145 -112,-115 -36,17 -43,46 -11,43 36,-4 67,12 74,38 8,32 -16,77 -80,152 -29,33 -60,73 -70,89 l -19,30 -22,-26 c -12,-14 -31,-31 -43,-37 -26,-14 -75,-15 -67,-1 3,6 18,10 31,10 31,0 84,50 84,80 0,50 -43,100 -102,120 -66,21 -41,30 29,10 37,-10 69,-17 71,-15 6,6 -100,125 -120,136 -9,5 -28,9 -42,9 -33,0 -33,7 1,42 14,15 25,30 22,32 -2,3 -32,-1 -67,-9 -59,-12 -62,-12 -57,5 4,12 -3,24 -22,38 -39,28 -87,171 -74,222 20,80 58,136 116,171 50,31 51,21 1,-22 z m -434,14 c 4,-2 -3,-23 -15,-46 -18,-34 -22,-59 -22,-127 v -85 l -30,-5 c -46,-8 -82,0 -110,26 -25,23 -25,23 -8,65 13,34 14,49 5,83 -9,35 -8,43 7,59 36,37 132,54 173,30 z m -289,-10 c -24,-9 -13,-23 17,-23 h 30 l -20,-39 -20,-40 -30,31 c -28,28 -35,30 -78,25 -26,-3 -58,-9 -71,-13 -21,-6 -22,-5 -14,11 13,22 103,53 158,53 22,0 34,-2 28,-5 z m 357,-33 c -14,-27 -20,-59 -20,-104 0,-59 -3,-67 -25,-82 -14,-9 -28,-14 -31,-11 -3,3 -8,32 -11,64 -4,47 0,66 19,103 20,39 55,69 81,70 4,0 -2,-18 -13,-40 z m 178,28 c -49,-131 -49,-203 -3,-265 24,-32 25,-35 5,-18 -67,57 -83,217 -28,282 13,17 32,17 26,1 z m 607,-12 c 63,-16 104,-38 130,-66 l 20,-23 -25,8 c -14,5 -56,16 -93,26 -69,18 -117,42 -117,59 0,13 25,12 85,-4 z m -731,-24 c 6,-10 -34,-102 -44,-102 -8,0 -5,22 12,78 9,31 22,40 32,24 z m -322,-67 c 0,-20 -5,-42 -11,-48 -8,-8 -11,1 -11,34 0,42 7,65 18,55 2,-3 4,-21 4,-41 z m 758,10 c 12,-19 20,-42 18,-50 -2,-8 -15,7 -29,35 -30,57 -22,68 11,15 z m -1060,-35 c 0,-50 -3,-60 -17,-60 -10,0 -28,-3 -40,-6 -21,-6 -23,-3 -23,32 0,32 6,44 32,66 18,15 36,28 41,28 4,0 7,-27 7,-60 z m 163,40 c 5,-4 7,-16 5,-26 -5,-31 -78,-31 -114,0 l -29,24 35,10 c 36,11 88,6 103,-8 z m 106,-88 c 1,-15 -9,-28 -31,-42 -18,-10 -34,-18 -36,-15 -2,2 6,21 17,42 11,21 23,52 27,68 l 7,30 7,-30 c 4,-16 8,-40 9,-53 z m 381,-34 c 0,-44 -4,-78 -10,-78 -12,0 -36,37 -51,78 -9,28 -8,35 17,67 35,47 44,34 44,-67 z m -591,64 c 22,-10 38,-22 34,-25 -10,-10 -73,-8 -73,2 0,5 -3,16 -6,25 -8,20 -5,20 45,-2 z m 134,-40 c -26,-35 -101,-88 -110,-78 -5,5 1,13 12,20 10,6 40,30 64,53 50,46 66,48 34,5 z m 1939,-4 c 12,-23 18,-52 16,-75 -3,-37 -4,-35 -30,40 -28,80 -19,100 14,35 z m -332,-29 c 0,-59 -21,-113 -49,-129 -26,-13 -27,1 -2,24 24,22 44,100 35,139 -4,20 -3,27 5,23 6,-4 11,-30 11,-57 z m -1680,22 c 0,-13 -60,-32 -74,-24 -6,4 6,12 29,19 22,7 41,13 43,13 1,1 2,-3 2,-8 z m -106,-20 c 5,-8 -75,-24 -82,-16 -2,2 -1,8 3,14 7,13 72,15 79,2 z m 976,-97 c -15,-39 -20,-25 -13,37 6,51 7,53 15,22 5,-19 4,-42 -2,-59 z m -1090,72 c 0,-3 -4,-8 -10,-11 -5,-3 -10,-1 -10,4 0,6 5,11 10,11 6,0 10,-2 10,-4 z m 154,-19 c 16,-12 16,-14 2,-26 -14,-11 -16,-11 -16,3 0,20 -5,20 -40,-1 -24,-14 -31,-14 -44,-4 -22,18 -20,29 7,34 45,9 74,7 91,-6 z m 1583,-141 c 51,1 90,-2 88,-7 -3,-4 -25,-15 -50,-25 -35,-13 -64,-16 -128,-11 -77,5 -80,4 -54,-10 33,-17 105,-22 160,-10 54,11 39,-7 -18,-23 -60,-17 -118,-8 -160,25 -39,29 -52,63 -36,93 11,20 12,20 58,-6 43,-24 58,-27 140,-26 z m -1574,-18 c 31,-66 41,-98 29,-98 -26,0 -72,75 -72,119 0,45 15,38 43,-21 z m 2140,11 c 7,-25 -2,-51 -14,-43 -12,7 -12,64 0,64 5,0 11,-9 14,-21 z m -2417,-149 c 5,-33 5,-34 -10,-16 -9,11 -16,31 -16,45 0,35 18,14 26,-29 z m 2394,14 c 0,-21 -4,-33 -10,-29 -5,3 -10,19 -10,36 0,16 5,29 10,29 6,0 10,-16 10,-36 z m 70,-21 c 19,-25 20,-28 5,-31 -28,-6 -45,6 -45,33 0,32 13,32 40,-2 z m -2185,-33 c 12,-19 -12,-10 -31,11 -19,22 -19,22 3,10 12,-6 25,-16 28,-21 z m -65,-10 c 0,-5 -7,-10 -15,-10 -8,0 -15,5 -15,10 0,6 7,10 15,10 8,0 15,-4 15,-10 z m 620,-15 c 0,-17 -42,-30 -67,-20 -17,6 -17,7 1,21 26,19 66,18 66,-1 z m 1546,1 c 10,-8 15,-18 11,-22 -4,-4 -17,2 -29,14 -25,25 -13,30 18,8 z m -2126,-21 c -7,-8 -17,-15 -23,-15 -5,0 -2,9 8,20 21,23 35,19 15,-5 z m 2188,0 c 14,-29 -2,-34 -18,-6 -12,24 -13,31 -2,31 5,0 14,-11 20,-25 z m 36,19 c 20,-8 21,-34 1,-34 -8,0 -15,2 -15,4 0,2 -3,11 -6,20 -7,18 -4,19 20,10 z m 69,-28 c 3,-8 -1,-20 -9,-26 -12,-10 -14,-8 -14,14 0,28 14,35 23,12 z m -223,-31 c 0,-14 0,-28 1,-32 0,-4 -4,-9 -10,-11 -7,-2 -11,11 -11,32 0,20 5,36 10,36 6,0 10,-11 10,-25 z m 88,-7 c -6,-18 -28,-21 -28,-4 0,9 7,16 16,16 9,0 14,-5 12,-12 z m 32,-27 c 0,-11 -9,-21 -22,-24 -29,-8 -31,-5 -12,21 19,27 34,28 34,3 z m 70,-28 c 0,-22 -2,-25 -10,-13 -13,20 -13,40 0,40 6,0 10,-12 10,-27 z m -185,-14 c 4,-5 4,-22 0,-37 l -8,-27 -7,25 c -5,14 -8,31 -9,38 -1,15 15,16 24,1 z m 145,-9 c 0,-5 -2,-10 -4,-10 -3,0 -8,5 -11,10 -3,6 -1,10 4,10 6,0 11,-4 11,-10 z m -60,-20 c 0,-5 -4,-10 -10,-10 -5,0 -10,5 -10,10 0,6 5,10 10,10 6,0 10,-4 10,-10 z m 48,-28 c 3,-9 -2,-13 -14,-10 -9,1 -19,9 -22,16 -3,9 2,13 14,10 9,-1 19,-9 22,-16 z m -6,-64 c -27,-28 -34,-31 -42,-18 -22,34 -12,50 32,50 h 43 z m 24,-50 c -8,-41 -13,-45 -33,-25 -16,15 -15,18 2,37 26,29 38,25 31,-12 z m -796,-73 c 10,-13 10,-23 -5,-55 -19,-43 -67,-95 -50,-55 5,11 13,44 19,73 11,55 16,61 36,37 z m 760,5 c 0,-15 -61,-50 -87,-50 -37,0 -36,19 1,26 20,3 40,12 47,20 13,16 39,19 39,4 z m -2025,-12 c 26,-12 42,-48 30,-68 -11,-18 -57,-32 -83,-25 -28,7 -19,25 13,25 13,0 26,4 30,9 8,13 -22,40 -53,48 -24,6 -25,7 -7,14 29,11 41,10 70,-3 z m 919,-29 c -15,-30 -15,-41 -4,-116 7,-46 11,-86 7,-89 -3,-3 -8,11 -12,32 -9,57 -26,117 -31,111 -3,-2 2,-35 11,-71 17,-75 21,-226 5,-226 -5,0 -10,19 -10,43 0,23 -7,85 -15,136 -18,111 -15,134 27,185 36,44 46,41 22,-5 z m 1228,-16 c 15,-15 28,-37 28,-50 0,-33 -16,-28 -29,9 -6,17 -19,40 -28,50 -25,28 -2,21 29,-9 z m -2366,-4 c 24,-6 44,-15 44,-19 0,-11 -80,-41 -91,-35 -10,7 -13,65 -3,65 3,0 25,-5 50,-11 z m 1539,-68 c -7,-34 -57,-81 -86,-81 -10,0 -19,1 -19,3 0,6 105,115 108,112 2,-2 1,-17 -3,-34 z m -1565,-21 c -33,-26 -52,-25 -21,0 13,11 28,20 35,20 6,0 0,-9 -14,-20 z m 149,-19 c -17,-24 -21,-39 -17,-75 6,-50 -2,-58 -25,-26 -14,21 -14,21 -22,-2 -7,-22 -7,-22 -12,-3 -8,31 -23,42 -23,16 0,-13 -4,-19 -10,-16 -6,4 -8,15 -5,26 9,26 -8,24 -43,-6 -17,-14 -32,-25 -35,-25 -15,0 9,78 30,100 l 25,25 -17,-35 c -17,-34 -17,-35 1,-18 19,16 135,64 162,67 8,1 5,-10 -9,-28 z m 946,-71 c 3,-36 9,-78 12,-95 3,-20 2,-27 -5,-20 -13,12 -32,115 -32,169 0,62 18,25 25,-54 z m -1155,3 c 0,-43 -4,-63 -9,-54 -14,22 -51,-73 -51,-129 0,-93 -21,-107 -39,-26 -11,50 -10,61 13,132 15,43 26,86 26,96 0,16 35,48 52,48 5,0 8,-30 8,-67 z m 1124,-98 c 4,-38 3,-55 -2,-46 -7,10 -12,3 -16,-25 -4,-22 -12,-46 -17,-54 -7,-10 -8,-1 -2,30 4,25 7,88 6,140 -1,90 -1,93 11,55 7,-22 16,-67 20,-100 z m -834,84 c 0,-17 -4,-28 -10,-24 -5,3 -10,17 -10,31 0,13 5,24 10,24 6,0 10,-14 10,-31 z m 752,-51 c 2,-35 1,-74 -1,-88 l -5,-25 -7,25 c -10,37 -10,150 0,150 5,0 11,-28 13,-62 z m 37,12 c 0,-23 -1,-23 -9,-5 -5,11 -9,29 -9,40 -1,17 1,17 9,5 5,-8 9,-26 9,-40 z m -721,-11 c -3,-8 -7,-3 -11,10 -4,17 -3,21 5,13 5,-5 8,-16 6,-23 z m -133,-5 c 17,-2 46,-16 64,-32 l 33,-27 h -114 c -62,1 -119,4 -125,8 -9,5 -11,3 -7,-6 3,-8 -2,-17 -10,-20 -21,-8 -32,36 -18,68 11,23 15,24 79,19 37,-3 82,-7 98,-10 z m -245,-105 c 0,-11 -4,-17 -10,-14 -5,3 -10,15 -10,26 0,11 5,17 10,14 6,-3 10,-15 10,-26 z m 676,-84 c -7,-19 -26,46 -25,83 1,35 2,34 15,-18 7,-30 12,-59 10,-65 z m 947,48 c 4,-38 8,-76 9,-86 2,-13 -16,-25 -79,-51 -46,-19 -83,-31 -83,-26 0,5 23,25 50,45 28,20 51,44 52,53 0,10 2,36 3,59 1,38 18,73 35,73 4,0 10,-30 13,-67 z m 657,7 c 0,-17 -39,-50 -57,-50 -13,0 -9,8 17,30 40,33 40,34 40,20 z m -1580,-163 c 0,-4 -13,0 -30,10 -16,9 -30,21 -30,26 0,4 14,0 30,-10 17,-9 30,-21 30,-26 z m 1490,33 c 0,-5 -4,-10 -10,-10 -5,0 -10,5 -10,10 0,6 5,10 10,10 6,0 10,-4 10,-10 z m -1490,-76 c 38,-40 40,-45 15,-29 -39,23 -74,55 -87,78 -16,31 20,5 72,-49 z m 236,-61 c -10,-10 -27,71 -20,95 6,23 8,18 16,-32 4,-33 6,-61 4,-63 z m -48,36 c 2,-49 -11,-38 -23,20 -5,26 -4,32 6,29 9,-3 15,-22 17,-49 z m 836,-90 c -3,-5 -14,-9 -26,-9 -17,0 -18,3 -8,14 12,15 44,10 34,-5 z m -64,-63 c 0,-14 -34,-28 -44,-18 -15,14 -4,32 19,32 15,0 25,-6 25,-14 z m 89,5 c 18,-11 5,-31 -20,-31 -18,0 -26,20 -12,33 8,9 15,9 32,-2 z m 73,-33 c -15,-15 -26,-4 -18,18 5,13 9,15 18,6 9,-9 9,-15 0,-24 z m -237,-38 c 3,-5 -1,-10 -9,-10 -9,0 -16,5 -16,10 0,6 4,10 9,10 6,0 13,-4 16,-10 z m 100,1 c 9,-16 -35,-35 -48,-22 -9,9 -8,14 3,21 19,12 37,13 45,1 z m 75,0 c 0,-5 -7,-11 -15,-15 -15,-5 -20,5 -8,17 9,10 23,9 23,-2 z m 70,-25 c 0,-8 -4,-17 -8,-20 -13,-8 -35,11 -28,23 10,16 36,14 36,-3 z m -1084,-54 c -13,-26 -43,-48 -52,-39 -2,2 10,20 27,41 36,42 48,42 25,-2 z m 784,18 c 0,-10 -39,-34 -46,-28 -2,2 3,14 12,26 14,21 34,22 34,2 z m 67,-17 c -9,-9 -20,-13 -24,-9 -4,4 1,14 11,22 25,18 35,8 13,-13 z m 103,12 c -14,-16 -50,-21 -50,-6 0,9 20,17 49,20 11,1 11,-2 1,-14 z m 80,-4 c 0,-23 -14,-41 -31,-41 -24,0 -25,26 -1,39 22,13 32,14 32,2 z m 71,-45 c -14,-17 -41,-11 -41,9 0,8 8,21 17,31 16,16 18,15 26,-4 7,-15 6,-26 -2,-36 z m -1255,-34 c -19,-19 -21,-5 -4,35 11,28 12,28 16,4 2,-13 -3,-31 -12,-39 z m 776,6 c -6,-6 -16,-7 -23,-3 -9,6 -7,12 7,22 21,15 34,-1 16,-19 z m 258,17 c 0,-9 -9,-15 -25,-15 -24,0 -32,10 -18,23 12,13 43,7 43,-8 z m -160,-2 c 0,-14 -15,-29 -32,-36 -13,-5 -18,-1 -18,12 0,19 12,29 38,30 6,1 12,-2 12,-6 z m 80,-3 c 0,-5 -9,-10 -20,-10 -11,0 -20,5 -20,10 0,6 9,10 20,10 11,0 20,-4 20,-10 z m -232,-72 c -20,-29 -38,-34 -38,-10 0,20 12,30 39,31 11,1 11,-3 -1,-21 z m -70,-4 c -4,-20 -34,-41 -44,-31 -8,8 24,47 38,47 5,0 8,-7 6,-16 z m 134,-16 c -15,-15 -26,-4 -18,18 5,13 9,15 18,6 9,-9 9,-15 0,-24 z m -307,-77 c -3,-12 -13,-21 -21,-21 -9,0 -12,5 -8,13 23,40 41,46 29,8 z m 105,25 c 0,-18 -15,-36 -31,-36 -18,0 -26,20 -12,33 7,8 43,10 43,3 z m -600,-47 c 0,-17 -20,-49 -30,-49 -11,0 -14,43 -3,53 10,11 33,8 33,-4 z m 510,-48 c -15,-28 -33,-27 -24,2 3,12 12,28 18,36 9,12 11,12 14,-2 2,-9 -2,-25 -8,-36 z m -452,27 c 18,-18 15,-28 -8,-28 -13,0 -20,7 -20,20 0,23 10,26 28,8 z m 310,-11 c 2,-10 -4,-20 -13,-23 -21,-9 -28,0 -20,26 8,24 28,22 33,-3 z m 82,-6 c 0,-10 -9,-21 -20,-24 -24,-6 -26,6 -4,27 20,21 24,20 24,-3 z m -172,-13 c -4,-27 -28,-36 -28,-10 0,20 8,32 22,32 5,0 8,-10 6,-22 z m -138,4 c 0,-4 -9,-13 -20,-20 -18,-11 -20,-10 -20,8 0,13 7,20 20,20 11,0 20,-3 20,-8 z m -135,-47 c 0,-10 -6,-20 -12,-22 -8,-3 -13,5 -13,22 0,17 5,25 13,23 6,-3 12,-13 12,-23 z m 375,-5 c 0,-11 -7,-23 -15,-27 -21,-8 -24,-2 -14,25 10,28 29,29 29,2 z m -150,-9 c 0,-10 -7,-21 -15,-25 -15,-5 -22,24 -8,37 12,13 23,7 23,-12 z m 61,-18 c -10,-17 -10,-16 -11,3 0,23 13,41 18,25 2,-6 -1,-18 -7,-28 z m -221,11 c 0,-9 -7,-14 -17,-12 -25,5 -28,28 -4,28 12,0 21,-6 21,-16 z m 80,7 c 0,-5 -7,-11 -15,-15 -9,-3 -15,0 -15,9 0,8 7,15 15,15 8,0 15,-4 15,-9 z m -180,-40 c 0,-17 -12,-41 -21,-41 -10,0 -12,33 -2,43 9,10 23,9 23,-2 z m 134,-7 c 12,-5 13,-10 5,-25 -17,-33 -58,-18 -45,16 6,16 16,18 40,9 z m 146,-6 c 0,-7 -4,-19 -9,-27 -11,-17 -25,3 -17,24 7,18 26,20 26,3 z m 138,-13 c -12,-27 -23,-31 -33,-15 -8,13 13,40 31,40 11,0 11,-5 2,-25 z m -203,5 c 7,-11 -42,-37 -51,-27 -9,9 15,37 32,37 7,0 16,-4 19,-10 z m 125,-10 c 0,-11 -7,-20 -15,-20 -27,0 -18,30 13,39 1,1 2,-8 2,-19 z m -280,0 c 0,-5 -4,-10 -9,-10 -6,0 -13,5 -16,10 -3,6 1,10 9,10 9,0 16,-4 16,-10 z m -50,-65 c 0,-25 -4,-35 -15,-35 -21,0 -29,24 -15,49 16,32 30,25 30,-14 z m 220,0 c 0,-18 -5,-25 -19,-25 -26,0 -36,17 -21,35 19,23 40,18 40,-10 z m -150,1 c 0,-7 -6,-19 -14,-25 -19,-16 -32,5 -16,24 16,19 30,19 30,1 z m 75,-6 c 0,-8 -10,-16 -22,-18 -22,-3 -32,16 -16,32 12,11 38,2 38,-14 z m 143,-7 c -5,-24 -25,-27 -31,-3 -4,15 0,20 15,20 13,0 18,-6 16,-17 z m -408,-66 c 0,-14 -20,-37 -32,-37 -12,0 -10,24 4,38 16,16 28,15 28,-1 z m 70,-26 c 0,-11 -29,-35 -35,-29 -10,9 7,38 21,38 8,0 14,-4 14,-9 z m 50,-20 c 0,-23 -16,-36 -25,-21 -9,14 1,40 15,40 5,0 10,-9 10,-19 z m 134,-6 c -6,-16 -34,-21 -34,-7 0,13 11,22 26,22 8,0 11,-6 8,-15 z m -274,-29 c 0,-8 -7,-16 -15,-20 -15,-5 -21,14 -8,27 11,12 23,8 23,-7 z m 206,3 c 3,-6 1,-16 -5,-22 -9,-9 -14,-8 -21,3 -5,8 -10,18 -10,23 0,11 28,8 36,-4 z m -152,-14 c -6,-16 -34,-21 -34,-7 0,13 11,22 26,22 8,0 11,-6 8,-15 z m 56,-5 c 0,-13 -7,-20 -20,-20 -25,0 -26,16 -2,29 23,14 22,14 22,-9 z m 142,-42 c -6,-6 -16,-8 -22,-6 -9,3 -7,9 6,22 13,13 19,15 22,6 2,-6 0,-16 -6,-22 z m -102,8 c 0,-7 -9,-16 -20,-19 -25,-6 -26,8 -2,22 22,13 22,13 22,-3 z m -215,-6 c -3,-5 -11,-10 -16,-10 -6,0 -7,5 -4,10 3,6 11,10 16,10 6,0 7,-4 4,-10 z m 39,-37 c -17,-12 -19,-12 -23,3 -2,10 5,24 15,31 17,12 19,12 23,-3 2,-10 -5,-24 -15,-31 z m 76,28 c 0,-21 -13,-41 -26,-41 -14,0 -19,31 -7,43 10,10 33,8 33,-2 z m 146,-7 c -3,-9 -6,-18 -6,-20 0,-2 -7,-4 -15,-4 -18,0 -19,12 -3,28 17,17 31,15 24,-4 z m -111,-43 c -20,-20 -29,-8 -15,19 10,18 14,20 21,9 5,-9 3,-19 -6,-28 z m 55,-11 c -12,-23 -30,-27 -30,-7 0,17 10,27 27,27 11,0 11,-5 3,-20 z m -217,-10 c -3,-11 -9,-17 -14,-14 -14,8 -10,34 5,34 9,0 12,-7 9,-20 z m 57,-5 c -16,-19 -30,-19 -30,-1 0,8 8,16 18,18 24,6 27,1 12,-17 z m 60,-2 c 0,-5 -5,-15 -10,-23 -7,-11 -12,-12 -21,-3 -6,6 -8,16 -5,22 8,12 36,15 36,4 z m 50,-17 c 0,-2 -3,-11 -6,-20 -9,-23 -24,-20 -24,4 0,11 7,20 15,20 8,0 15,-2 15,-4 z m -225,-26 c 7,-12 -12,-40 -26,-40 -10,0 -12,34 -2,43 9,10 21,9 28,-3 z m 115,-3 c 0,-14 -20,-37 -32,-37 -10,0 -11,34 -1,43 11,12 33,8 33,-6 z m -65,-18 c 8,-25 -5,-41 -24,-30 -8,5 -11,16 -6,30 8,27 22,27 30,0 z m 125,2 c 0,-5 -7,-14 -15,-21 -18,-15 -42,1 -31,19 8,13 46,15 46,2 z"
           id="path4895" />
        <path
           d="m 4642,13820 c 3,-27 1,-50 -3,-50 -14,0 -10,-26 5,-39 10,-9 19,-7 37,8 l 24,20 -22,40 c -13,22 -23,47 -23,55 0,9 -5,16 -11,16 -8,0 -10,-17 -7,-50 z"
           id="path4897" />
        <path
           d="m 4162,13707 c -12,-13 -22,-29 -22,-35 0,-16 74,-52 108,-52 36,0 129,46 143,71 13,26 9,24 -51,-16 -34,-23 -64,-35 -86,-35 -32,0 -34,2 -34,32 v 31 l -25,-23 c -26,-24 -33,-14 -14,22 16,29 6,32 -19,5 z"
           id="path4899" />
        <path
           d="m 4060,13675 c -6,-7 -17,-44 -23,-80 -10,-59 -9,-67 7,-83 18,-16 18,-16 12,11 -4,15 -1,37 5,48 9,17 18,20 50,17 21,-2 39,0 39,4 0,12 -37,28 -64,28 -28,0 -33,17 -16,51 13,22 7,25 -10,4 z"
           id="path4901" />
        <path
           d="m 4117,13533 c -15,-15 -6,-81 14,-104 16,-19 19,-20 15,-6 -3,10 -6,41 -6,68 0,46 -7,59 -23,42 z"
           id="path4903" />
        <path
           d="m 4094,13423 c 8,-50 34,-103 49,-103 8,0 20,6 26,14 10,12 7,18 -14,32 -14,9 -35,33 -46,53 l -20,36 z"
           id="path4905" />
        <path
           d="m 4162,13298 c -34,-44 -58,-133 -41,-159 5,-8 9,-9 9,-3 0,6 12,29 26,50 31,45 45,89 37,110 -6,17 -17,18 -31,2 z"
           id="path4907" />
        <path
           d="m 5111,12353 c 0,-34 -6,-74 -12,-90 -24,-59 -38,-113 -29,-113 5,0 20,24 35,54 25,52 26,59 17,133 l -9,78 z"
           id="path4909" />
        <path
           d="m 4765,12197 c -9,-20 2,-84 15,-92 12,-7 12,48 0,85 -6,22 -8,23 -15,7 z"
           id="path4911" />
        <path
           d="m 4340,12019 c 0,-21 29,-79 40,-79 4,0 2,23 -4,50 -10,50 -36,71 -36,29 z"
           id="path4913" />
        <path
           d="m 4386,12032 c -2,-4 0,-14 5,-22 8,-13 10,-13 18,0 10,15 6,30 -9,30 -5,0 -11,-4 -14,-8 z"
           id="path4915" />
        <path
           d="m 4545,11998 c 4,-18 12,-42 18,-53 11,-20 12,-20 15,2 3,21 -22,83 -34,83 -3,0 -2,-15 1,-32 z"
           id="path4917" />
        <path
           d="m 5437,13212 c -10,-10 -17,-31 -17,-46 0,-26 3,-28 30,-24 39,6 38,-2 -4,-30 -35,-24 -84,-72 -73,-72 3,0 22,10 43,22 l 37,21 -12,-21 c -11,-20 -9,-22 18,-22 36,0 96,48 105,85 8,30 -16,80 -43,95 -30,15 -66,12 -84,-8 z"
           id="path4919" />
        <path
           d="m 5657,12973 c -34,-38 -17,-63 44,-63 36,0 36,7 1,49 -27,32 -28,32 -45,14 z"
           id="path4921" />
      </g>
      <g
         id="g6311"
         transform="matrix(0.4308007,0,0,0.4308007,2816.8707,4421.4247)">
        <path
           id="path6193"
           d="m 2867,5990 c -27,-5 -56,-15 -65,-23 -16,-13 -78,-27 -192,-42 -96,-13 -261,-97 -237,-121 4,-4 20,4 35,19 15,14 45,33 67,42 l 40,16 -51,-50 c -28,-27 -64,-53 -80,-56 -16,-3 -36,-10 -44,-14 -21,-11 -88,-114 -83,-127 2,-6 -10,-24 -26,-40 -17,-16 -31,-35 -31,-41 0,-7 -5,-13 -11,-13 -6,0 -35,-25 -66,-55 -31,-30 -79,-66 -107,-80 -28,-14 -57,-34 -64,-45 -7,-11 -18,-20 -25,-20 -24,0 -95,-69 -91,-87 3,-10 -1,-44 -9,-76 -10,-45 -19,-63 -40,-75 -35,-22 -40,-13 -22,37 19,54 -1,43 -27,-15 -13,-31 -29,-48 -51,-58 -47,-19 -95,-63 -117,-107 -21,-41 -28,-143 -10,-154 6,-4 10,11 10,37 0,70 27,128 80,173 67,55 72,55 64,3 -5,-33 -4,-40 5,-32 7,6 13,22 15,35 4,39 15,49 52,49 51,0 62,-30 40,-116 -20,-79 -61,-164 -79,-164 -8,0 -24,-11 -37,-25 -15,-16 -35,-25 -54,-25 h -31 l 24,-19 c 21,-16 23,-24 19,-69 -3,-28 -2,-56 2,-63 13,-21 -11,-83 -47,-120 -23,-24 -31,-39 -23,-44 8,-5 8,-11 -2,-23 -7,-8 -8,-13 -3,-11 6,3 27,13 47,22 21,9 44,30 53,47 21,40 34,38 32,-5 -3,-37 -12,-52 -37,-57 -23,-5 -37,-29 -38,-65 -1,-42 -9,-55 -32,-48 -13,4 -17,1 -16,-12 1,-12 -5,-17 -16,-15 -11,2 -18,-3 -18,-12 0,-10 6,-13 15,-10 12,5 15,-3 16,-37 1,-24 1,-49 0,-56 -2,-17 60,-48 68,-35 4,6 19,16 35,22 24,9 31,7 42,-7 20,-26 12,-48 -15,-45 -13,1 -32,-4 -41,-13 -9,-8 -31,-20 -48,-26 -18,-6 -32,-17 -32,-25 0,-19 24,-18 41,2 16,20 69,47 77,40 3,-4 -9,-21 -26,-39 -40,-41 -40,-48 -2,-40 23,4 30,2 30,-10 0,-17 -20,-27 -58,-27 -15,-1 -40,-7 -57,-16 l -30,-14 34,5 c 29,4 32,3 25,-13 -4,-9 -9,-36 -12,-59 -3,-31 -8,-40 -18,-36 -18,7 -17,-17 1,-41 36,-47 6,-116 -50,-116 -33,0 -33,0 -30,-42 2,-24 4,-50 4,-59 1,-16 40,-38 77,-43 14,-2 18,-10 16,-29 -2,-16 5,-37 16,-51 12,-17 19,-43 21,-83 2,-78 42,-159 96,-195 37,-25 45,-26 116,-21 61,5 90,1 145,-15 134,-41 224,-41 224,-2 0,24 9,25 24,5 10,-13 26,-13 141,0 72,8 135,15 141,15 6,0 32,-27 58,-60 65,-83 189,-203 264,-257 68,-48 105,-64 256,-113 55,-17 149,-57 210,-87 l 111,-55 80,6 c 70,5 292,36 381,52 26,5 41,20 85,86 29,45 60,88 69,97 10,9 54,63 100,121 45,58 121,145 168,195 46,49 92,101 100,115 9,14 31,39 49,56 22,21 34,44 39,73 4,22 11,41 15,41 5,0 15,12 21,26 10,20 9,27 -2,34 -12,8 -11,13 8,30 69,64 81,184 26,265 -18,27 -25,51 -26,89 -1,48 -3,52 -23,48 -12,-2 -27,4 -34,12 -8,9 -17,16 -22,16 -4,0 -19,4 -34,10 -23,9 -24,12 -14,31 9,18 17,21 52,16 42,-6 77,5 77,25 0,6 -11,8 -25,5 -19,-3 -35,4 -63,29 -30,27 -33,34 -17,34 15,0 16,3 7,12 -7,7 -12,23 -12,37 1,24 2,25 14,9 7,-10 18,-18 24,-18 6,0 13,-6 15,-12 4,-9 6,-7 6,3 1,9 11,21 24,28 20,10 18,11 -14,6 -28,-4 -40,-1 -58,19 -19,20 -22,36 -25,130 -4,110 -9,132 -27,106 -8,-11 -9,-5 -4,22 3,23 0,50 -10,74 -8,20 -12,40 -9,45 3,5 -8,14 -25,20 -17,6 -31,15 -31,20 0,5 -9,9 -20,9 -21,0 -60,33 -60,50 0,13 17,13 25,0 7,-11 25,-4 25,10 0,5 -7,10 -16,12 -28,6 -93,188 -66,188 16,0 44,-49 38,-68 -6,-19 3,-36 22,-40 10,-2 10,2 2,19 -14,25 -9,32 14,23 22,-9 43,-47 28,-52 -7,-2 1,-20 17,-43 16,-21 32,-55 35,-74 4,-20 11,-33 17,-30 18,12 9,46 -35,133 -24,48 -47,98 -51,112 -7,25 -7,25 9,4 8,-12 29,-24 46,-27 16,-4 30,-12 30,-20 0,-14 100,-117 115,-117 5,0 4,5 -3,12 -7,7 -12,18 -12,26 0,7 -45,58 -100,112 -76,76 -100,106 -100,126 0,16 -10,34 -25,46 -29,22 -58,72 -48,82 4,4 -5,18 -20,32 -15,14 -27,33 -27,43 0,11 -7,21 -15,25 -22,8 -39,57 -23,67 9,6 -3,22 -39,57 -28,27 -61,68 -73,92 -53,103 -190,286 -190,252 0,-6 5,-14 10,-17 6,-3 10,-11 10,-18 0,-15 -98,93 -106,118 -4,11 -22,37 -41,58 -19,21 -32,45 -29,53 3,7 -4,18 -14,24 -19,10 -24,6 -21,-13 1,-5 -4,-7 -11,-5 -7,3 -13,13 -13,23 0,14 -16,24 -65,40 -36,11 -76,27 -90,35 -14,8 -36,13 -49,11 -20,-2 -23,1 -18,18 13,51 -48,26 -105,-42 -21,-25 -47,-48 -57,-52 -25,-8 -74,23 -67,42 6,14 -16,26 -71,39 -17,5 -24,3 -19,-4 3,-6 2,-13 -4,-17 -6,-3 -13,1 -16,9 -4,9 -18,16 -34,16 -35,0 -48,16 -20,23 11,3 20,10 20,16 0,13 -89,13 -163,1 z m 0,-51 c -14,-8 -22,-8 -30,0 -8,8 -3,11 19,11 25,-1 27,-2 11,-11 z m -227,-49 c 0,-5 -6,-10 -12,-10 -7,0 -35,-12 -63,-25 -63,-31 -88,-33 -59,-4 34,33 134,63 134,39 z m -150,-80 c 0,-5 -7,-10 -15,-10 -8,0 -15,5 -15,10 0,6 7,10 15,10 8,0 15,-4 15,-10 z m -90,-59 c 0,-11 -89,-91 -101,-91 -15,0 -10,11 14,36 12,13 30,33 40,44 17,20 47,27 47,11 z m -246,-301 c -11,-21 -23,-30 -41,-30 -15,0 -23,5 -20,13 2,6 11,11 20,11 9,-1 14,2 11,7 -4,7 9,16 43,28 1,1 -5,-12 -13,-29 z m 1116,-84 c 8,-23 41,-58 104,-115 14,-13 26,-31 26,-41 0,-10 10,-20 24,-24 12,-3 36,-24 51,-46 26,-37 37,-45 59,-41 4,1 14,-3 22,-10 7,-6 17,-8 23,-5 13,9 71,-63 64,-80 -3,-8 2,-29 10,-47 8,-17 18,-49 22,-69 4,-21 11,-38 16,-38 5,0 9,-21 9,-47 0,-27 5,-67 10,-90 6,-25 6,-67 2,-102 -7,-48 -6,-61 4,-61 15,0 58,-87 69,-137 4,-18 11,-35 16,-38 5,-4 5,-13 -1,-25 -7,-13 -6,-28 4,-52 8,-22 12,-65 9,-128 -2,-52 -4,-114 -4,-137 -1,-23 -6,-41 -12,-40 -14,3 -28,-61 -21,-96 4,-19 0,-35 -11,-47 -9,-10 -15,-27 -14,-37 5,-30 -9,-43 -40,-37 -24,5 -29,2 -34,-18 -12,-51 -35,-101 -51,-110 -9,-5 -16,-16 -16,-23 0,-8 -5,-15 -11,-15 -8,0 -7,-5 1,-15 11,-13 10,-18 -8,-31 -12,-8 -22,-26 -22,-39 0,-41 -17,-72 -44,-79 -14,-3 -30,-15 -36,-26 -6,-10 -16,-17 -24,-14 -16,6 -40,-21 -33,-39 3,-8 -7,-21 -23,-31 -16,-9 -32,-25 -35,-36 -8,-24 -40,-27 -49,-4 -3,8 -10,12 -16,9 -6,-4 -8,-10 -5,-15 8,-13 -30,-31 -49,-24 -12,4 -16,0 -16,-15 0,-12 -6,-21 -15,-21 -8,0 -15,5 -15,11 0,14 -40,65 -41,53 -5,-35 -31,-94 -43,-94 -5,0 -15,8 -22,18 -12,16 -13,15 -14,-5 0,-42 -35,-36 -53,10 -3,9 -13,17 -21,17 -25,0 -24,24 3,54 14,16 22,27 16,24 -43,-17 -65,-34 -65,-49 0,-22 -30,-30 -51,-12 -9,7 -30,15 -47,16 -21,1 -35,10 -43,25 -9,16 -21,22 -46,22 -18,0 -33,5 -33,10 0,6 -9,10 -19,10 -11,0 -22,9 -26,20 -3,11 -17,28 -31,39 -13,10 -24,28 -24,40 0,12 -4,21 -9,21 -5,0 -11,13 -14,29 -3,16 -21,45 -40,65 l -34,36 -17,-22 c -15,-22 -15,-21 -9,31 4,37 3,52 -5,47 -6,-3 -13,2 -15,11 -4,15 -6,15 -12,-4 -8,-26 -25,-31 -25,-7 0,8 -5,25 -12,37 l -12,22 -7,-25 c -6,-24 -7,-24 -15,-5 -4,11 -14,25 -22,31 -8,5 -14,28 -14,50 0,21 -7,54 -15,73 -8,18 -13,46 -9,61 3,18 0,33 -8,39 -29,24 -25,63 11,115 19,28 37,63 40,78 4,19 11,27 22,26 10,-2 17,5 19,20 2,13 10,26 18,29 8,3 14,16 14,28 0,41 18,73 42,77 17,2 24,11 26,31 3,26 6,27 57,27 29,0 55,4 57,9 4,11 123,-10 154,-27 18,-9 25,-8 42,11 30,33 62,90 62,111 0,23 -28,56 -47,56 -7,0 -13,6 -13,13 -1,35 -14,37 -122,13 -58,-14 -135,-36 -170,-50 -36,-14 -70,-26 -76,-26 -22,0 -24,22 -2,45 18,19 42,26 149,41 127,18 128,18 107,37 l -21,19 23,-5 c 25,-6 27,0 8,26 -13,17 -21,17 -97,7 -81,-11 -179,-6 -179,10 0,4 3,22 6,39 5,25 10,30 26,25 17,-5 18,-3 7,14 -10,16 -7,28 17,72 16,29 36,55 45,57 10,3 19,17 22,31 2,15 7,34 11,43 4,10 1,23 -8,32 -9,9 -16,18 -16,20 0,10 81,60 87,54 3,-4 11,3 18,16 6,12 19,21 28,21 11,-1 20,8 24,25 3,14 14,38 24,53 11,14 19,31 19,37 0,17 45,31 101,31 46,0 54,4 90,40 21,21 39,43 39,48 0,5 19,17 43,27 44,19 97,20 108,3 10,-16 69,19 63,37 -4,10 0,15 10,15 9,0 21,-11 26,-24 z m -1230,-1 c -13,-16 -40,-20 -40,-7 0,14 12,22 33,22 16,0 17,-3 7,-15 z m -60,-69 c 0,-7 -7,-19 -15,-26 -8,-7 -15,-19 -15,-26 0,-19 -19,-18 -27,2 -3,8 4,25 17,40 26,27 40,31 40,10 z m -94,-72 c -3,-9 -6,-20 -6,-25 0,-5 -4,-9 -10,-9 -11,0 -14,33 -3,43 12,13 25,7 19,-9 z m 829,-86 c -9,-30 -33,-54 -42,-44 -5,5 -2,11 4,13 8,3 11,14 7,29 -5,20 -2,24 16,24 17,0 20,-4 15,-22 z m -122,-103 c -6,-17 -25,-15 -31,3 -2,7 5,12 17,12 14,0 19,-5 14,-15 z m 1685,-179 c 3,-12 -1,-17 -10,-14 -7,3 -15,13 -16,22 -3,12 1,17 10,14 7,-3 15,-13 16,-22 z M 1720,4703 c 0,-5 -4,-15 -10,-23 -11,-18 -25,-7 -17,15 6,15 27,21 27,8 z m 9,-59 c -7,-9 -12,-36 -10,-63 1,-37 -3,-51 -19,-66 -24,-22 -27,-4 -6,37 9,16 11,30 5,33 -14,9 -11,27 13,65 12,21 23,30 25,22 3,-7 -1,-20 -8,-28 z m 65,-126 c -8,-27 -12,-33 -19,-27 -7,8 7,49 17,49 5,0 6,-10 2,-22 z m 2606,-91 c 0,-42 -7,-49 -31,-34 -21,13 -26,53 -6,60 29,12 37,6 37,-26 z m -20,-117 c 0,-16 9,-39 19,-49 24,-24 34,-55 26,-81 -10,-31 -25,-24 -25,11 0,18 -7,37 -16,43 -16,12 -36,91 -26,101 13,13 22,3 22,-25 z m 45,-9 c -10,-16 -25,-3 -25,22 0,20 1,20 16,5 9,-9 13,-21 9,-27 z m -2697,-18 c -4,-22 -38,-30 -38,-10 0,14 13,24 33,26 5,1 7,-7 5,-16 z m 5,-72 c 9,-10 8,-15 -7,-27 -29,-21 -49,-18 -43,6 5,18 2,19 -34,14 -33,-6 -39,-4 -39,11 0,15 8,17 55,13 31,-3 61,-10 68,-17 z m 144,-36 c -4,-8 -11,-15 -17,-15 -7,0 -7,6 0,21 13,23 26,19 17,-6 z m 439,-21 c -3,-9 -6,-20 -6,-25 0,-6 -4,-8 -9,-5 -12,8 -2,46 11,46 6,0 7,-7 4,-16 z m 34,-64 c 0,-11 -7,-20 -15,-20 -17,0 -18,2 -9,24 9,23 24,20 24,-4 z m 0,-50 c 0,-12 -28,-25 -36,-17 -9,9 6,27 22,27 8,0 14,-5 14,-10 z m 2103,-14 c 22,-17 22,-26 -1,-26 -11,0 -27,9 -37,20 -17,19 -17,20 1,20 10,0 27,-7 37,-14 z m -47,-73 c -8,-8 -36,5 -36,17 0,7 6,7 21,0 11,-7 18,-14 15,-17 z m -2662,-66 c 12,-46 5,-53 -56,-62 -47,-7 -48,-7 -48,20 0,31 54,88 79,83 9,-2 20,-20 25,-41 z m 74,7 c -10,-10 -28,6 -28,24 0,15 1,15 17,-1 9,-9 14,-19 11,-23 z m 2652,-34 c 8,-5 11,-12 8,-16 -11,-10 -60,5 -53,16 8,12 26,12 45,0 z m 80,-28 c 0,-15 -2,-15 -10,-2 -13,20 -13,33 0,25 6,-3 10,-14 10,-23 z m -20,-142 c 11,0 1,-38 -12,-46 -12,-8 -28,14 -28,40 0,12 5,16 16,12 9,-3 19,-6 24,-6 z m 27,-123 c -22,-50 -107,-101 -107,-64 0,8 10,22 21,33 12,10 35,44 52,74 l 31,54 9,-30 c 6,-21 4,-41 -6,-67 z m -2877,-99 c 0,-7 -4,-19 -9,-26 -6,-10 -10,-10 -20,2 -7,8 -10,20 -6,26 9,14 35,13 35,-2 z m 2260,-178 c 0,-13 -7,-20 -20,-20 -18,0 -19,2 -8,20 7,11 16,20 20,20 5,0 8,-9 8,-20 z m 160,-57 c 0,-5 -4,-15 -10,-23 -11,-18 -25,-7 -17,15 6,15 27,21 27,8 z m -190,-33 c 0,-10 -32,-30 -49,-30 -6,0 -11,6 -11,14 0,13 9,17 53,25 4,0 7,-3 7,-9 z m 245,-49 c -8,-8 -35,22 -35,38 0,12 5,10 20,-9 10,-14 17,-27 15,-29 z m -84,-74 c -16,-16 -26,0 -10,19 9,11 15,12 17,4 2,-6 -1,-17 -7,-23 z"
           inkscape:connector-curvature="0" />
        <path
           id="path6195"
           d="m 3180,4670 c 0,-10 -5,-22 -10,-25 -15,-9 -2,-25 21,-25 10,0 19,-4 19,-9 0,-22 -13,-41 -29,-41 -10,0 -22,-14 -30,-36 -16,-45 0,-84 35,-84 15,0 24,-8 28,-25 4,-14 4,-30 1,-35 -8,-14 15,-24 28,-11 6,6 24,11 39,11 45,0 152,32 166,49 11,14 14,14 22,1 8,-12 11,-11 16,8 6,22 26,28 85,24 15,-1 32,5 39,13 10,11 7,19 -16,40 -15,14 -43,29 -63,34 -20,5 -55,15 -78,21 -65,16 -52,30 30,30 77,0 143,12 160,29 15,15 -52,51 -97,51 -21,0 -79,-5 -128,-12 -73,-10 -94,-9 -111,1 -17,11 -22,11 -32,-3 -15,-19 -26,-21 -19,-3 3,9 -7,13 -36,14 -33,2 -40,-1 -40,-17 z m 185,-70 c 4,-6 -6,-10 -22,-10 -22,0 -25,2 -13,10 19,12 27,12 35,0 z m -35,-106 c 0,-8 -7,-14 -15,-14 -15,0 -21,21 -9,33 10,9 24,-2 24,-19 z"
           inkscape:connector-curvature="0" />
        <path
           id="path6197"
           d="m 2814,4625 c -8,-21 6,-41 17,-24 12,19 11,39 -1,39 -6,0 -13,-7 -16,-15 z"
           inkscape:connector-curvature="0" />
        <path
           id="path6199"
           d="m 2780,4584 c 0,-8 5,-12 10,-9 6,3 10,10 10,16 0,5 -4,9 -10,9 -5,0 -10,-7 -10,-16 z"
           inkscape:connector-curvature="0" />
        <path
           id="path6201"
           d="m 3128,4009 c -32,-18 -19,-30 29,-27 36,2 49,7 51,21 3,13 -3,17 -30,17 -18,0 -41,-5 -50,-11 z"
           inkscape:connector-curvature="0" />
        <path
           id="path6203"
           d="m 2882,3993 c 4,-23 68,-32 68,-10 0,16 -21,27 -52,27 -13,0 -18,-6 -16,-17 z"
           inkscape:connector-curvature="0" />
        <path
           id="path6205"
           d="m 3106,3914 c -42,-42 -4,-89 92,-114 26,-6 55,-16 66,-22 14,-7 22,-6 35,7 12,13 13,19 4,22 -7,3 -13,9 -13,15 0,18 -67,78 -87,78 -10,0 -27,7 -37,15 -25,19 -41,19 -60,-1 z"
           inkscape:connector-curvature="0" />
        <path
           id="path6207"
           d="m 2893,3883 c -13,-8 -23,-22 -23,-29 0,-8 -11,-19 -25,-24 -14,-5 -25,-16 -25,-24 0,-8 -3,-21 -6,-30 -5,-12 0,-16 19,-16 14,0 29,5 33,11 11,19 108,59 142,59 29,0 33,3 30,23 -2,14 -10,22 -23,23 -11,0 -33,6 -48,12 -36,15 -47,15 -74,-5 z"
           inkscape:connector-curvature="0" />
        <path
           id="path6209"
           d="m 3334,3797 c -11,-29 53,-103 72,-84 7,6 -6,28 -45,77 -18,23 -20,23 -27,7 z"
           inkscape:connector-curvature="0" />
        <path
           id="path6211"
           d="m 3410,3780 c 0,-6 5,-21 11,-32 8,-14 8,-23 0,-31 -14,-14 24,-57 51,-57 14,0 18,8 18,33 0,25 -9,39 -40,65 -22,18 -40,28 -40,22 z"
           inkscape:connector-curvature="0" />
        <path
           id="path6213"
           d="m 2731,3734 c -23,-26 -41,-52 -41,-57 0,-6 -10,-21 -22,-34 -23,-25 -13,-30 27,-11 14,6 25,17 25,25 0,7 5,14 10,14 6,1 15,2 22,3 12,1 36,58 37,89 1,28 -15,20 -58,-29 z"
           inkscape:connector-curvature="0" />
        <path
           id="path6215"
           d="m 3166,3693 c -4,-4 -66,-7 -139,-8 -106,-1 -139,-4 -169,-19 -21,-10 -38,-25 -38,-33 0,-16 22,-12 80,17 26,13 52,16 101,12 36,-2 98,1 137,7 59,9 79,8 114,-4 50,-17 84,-19 93,-5 16,25 -155,57 -179,33 z"
           inkscape:connector-curvature="0" />
        <path
           id="path6217"
           d="m 3100,3276 c 0,-8 5,-18 10,-21 6,-3 10,1 10,9 0,8 -4,18 -10,21 -5,3 -10,-1 -10,-9 z"
           inkscape:connector-curvature="0" />
        <path
           id="path6219"
           d="m 2645,5950 -20,-9 h 20 c 11,0 29,4 40,9 l 20,9 h -20 c -11,0 -29,-4 -40,-9 z"
           inkscape:connector-curvature="0" />
        <path
           id="path6221"
           d="m 2200,5610 c -13,-8 -12,-10 3,-10 9,0 17,5 17,10 0,12 -1,12 -20,0 z"
           inkscape:connector-curvature="0" />
        <path
           id="path6223"
           d="m 2015,5533 c -42,-10 -35,-21 12,-16 60,7 93,23 43,22 -19,-1 -44,-3 -55,-6 z"
           inkscape:connector-curvature="0" />
        <path
           id="path6225"
           d="m 2013,5478 c -24,-12 -29,-23 -14,-33 13,-8 62,16 58,29 -5,15 -19,16 -44,4 z"
           inkscape:connector-curvature="0" />
        <path
           id="path6227"
           d="m 1893,5387 c -23,-17 -44,-41 -47,-52 -3,-10 -4,-19 -3,-20 1,0 26,23 55,52 60,60 58,69 -5,20 z"
           inkscape:connector-curvature="0" />
        <path
           id="path6229"
           d="m 4179,5186 c 29,-31 35,-33 22,-7 -6,10 -18,22 -28,25 -13,5 -11,1 6,-18 z"
           inkscape:connector-curvature="0" />
        <path
           id="path6231"
           d="m 1698,4890 c -12,-38 -10,-66 3,-53 6,6 9,26 7,44 -3,32 -3,33 -10,9 z"
           inkscape:connector-curvature="0" />
        <path
           id="path6233"
           d="m 4558,4598 c 54,-91 72,-127 83,-170 10,-42 9,-51 -6,-75 l -18,-28 21,19 c 12,11 22,30 22,43 0,40 -39,145 -73,195 -36,54 -59,66 -29,16 z"
           inkscape:connector-curvature="0" />
        <path
           id="path6235"
           d="m 1560,4410 c 0,-5 5,-10 10,-10 6,0 10,5 10,10 0,6 -4,10 -10,10 -5,0 -10,-4 -10,-10 z"
           inkscape:connector-curvature="0" />
        <path
           id="path6237"
           d="m 1586,4354 c -3,-9 -6,-25 -6,-37 0,-21 1,-21 20,3 24,30 24,36 6,43 -8,3 -17,-1 -20,-9 z"
           inkscape:connector-curvature="0" />
        <path
           id="path6239"
           d="m 4500,4295 c 0,-8 4,-15 9,-15 5,0 14,7 21,15 10,13 9,15 -9,15 -12,0 -21,-6 -21,-15 z"
           inkscape:connector-curvature="0" />
        <path
           id="path6241"
           d="m 1375,4230 c -3,-5 -2,-10 4,-10 5,0 13,5 16,10 3,6 2,10 -4,10 -5,0 -13,-4 -16,-10 z"
           inkscape:connector-curvature="0" />
        <path
           id="path6243"
           d="m 1507,4144 c -4,-4 -7,-14 -7,-23 0,-11 3,-12 11,-4 6,6 10,16 7,23 -2,6 -7,8 -11,4 z"
           inkscape:connector-curvature="0" />
      </g>
      <g
         transform="matrix(0.75643389,0,0,0.76612044,-12903.037,1811.8749)"
         id="g9507">
        <path
           inkscape:connector-curvature="0"
           id="path9133"
           d="m 24663,5940 c -18,-10 -39,-30 -48,-43 -15,-23 -14,-28 5,-78 21,-51 21,-66 18,-428 -4,-406 -8,-435 -59,-473 -29,-22 -151,-38 -287,-38 -80,0 -94,3 -109,20 -22,25 -34,25 -63,2 -29,-23 -22,-62 14,-81 20,-11 27,-11 48,3 21,14 47,15 186,10 126,-6 165,-11 175,-22 9,-11 13,-121 15,-444 2,-261 7,-428 12,-428 6,0 10,96 10,243 0,133 3,326 7,430 l 6,187 h 24 23 v -250 c 0,-160 4,-250 10,-250 6,0 10,79 10,218 0,123 5,224 10,232 6,10 10,-192 11,-580 1,-327 5,-626 9,-665 4,-41 8,103 10,350 1,231 5,528 9,660 l 6,240 9,-187 c 5,-103 12,-185 17,-182 5,3 9,37 9,75 0,39 4,68 9,65 4,-3 9,-113 10,-243 3,-643 15,-1343 23,-1343 4,0 9,258 10,573 1,404 4,521 9,397 3,-96 7,-314 8,-485 1,-170 5,-321 9,-335 4,-14 9,368 12,848 4,705 8,874 18,881 7,4 86,11 174,15 136,5 164,4 178,-9 22,-20 43,-19 65,5 22,25 14,62 -19,83 -23,16 -25,15 -41,-10 l -17,-26 -157,6 c -190,7 -229,17 -255,70 -29,60 -35,150 -35,492 -1,298 1,323 19,364 11,24 20,51 20,61 0,16 -74,90 -89,90 -3,0 -20,-9 -38,-20 z" />
        <path
           inkscape:connector-curvature="0"
           id="path9267"
           d="m 22399,4543 c 11,-16 73,-146 137,-290 65,-145 121,-259 125,-255 3,4 35,69 69,145 35,76 67,140 70,142 4,2 36,-59 72,-137 36,-78 69,-143 74,-145 5,-1 54,97 109,220 54,122 113,250 130,285 l 32,62 h -70 c -67,0 -69,-1 -54,-18 10,-10 17,-25 17,-34 0,-13 -136,-334 -158,-375 -6,-10 -29,33 -77,146 -38,89 -71,161 -74,161 -3,0 -23,-43 -44,-95 -21,-53 -52,-126 -69,-163 -26,-57 -32,-64 -39,-47 -5,11 -43,98 -84,194 -41,96 -75,178 -75,182 0,5 10,17 22,29 l 22,20 h -77 -78 z" />
        <path
           inkscape:connector-curvature="0"
           id="path9269"
           d="m 23458,4550 c 21,-20 22,-26 22,-270 0,-237 -1,-251 -20,-270 l -20,-20 h 77 c 73,0 76,1 55,16 -22,15 -22,18 -22,274 0,256 0,259 22,274 21,15 18,16 -57,16 h -79 z" />
        <path
           inkscape:connector-curvature="0"
           id="path9271"
           d="m 24249,4544 c 20,-25 21,-40 21,-215 0,-104 -4,-189 -9,-189 -4,0 -98,94 -207,210 -109,115 -202,210 -205,210 -3,0 -7,-120 -8,-267 -2,-228 -5,-271 -18,-285 -15,-17 -12,-18 50,-18 67,0 80,7 52,30 -12,10 -15,46 -15,209 l 1,196 207,-213 c 114,-117 210,-212 214,-212 3,0 6,119 5,264 -2,247 -1,265 17,285 l 19,21 h -72 -72 z" />
        <path
           inkscape:connector-curvature="0"
           id="path9273"
           d="m 25640,4564 c 0,-3 7,-12 15,-20 13,-13 15,-57 15,-266 0,-220 -2,-254 -17,-270 -15,-17 -13,-18 51,-18 h 67 l -15,22 c -12,17 -16,48 -16,125 v 103 l 33,-7 c 64,-12 98,-36 151,-107 75,-101 117,-136 166,-136 72,0 77,11 19,39 -53,26 -82,56 -170,178 l -36,50 33,44 c 83,110 55,229 -61,258 -45,11 -235,16 -235,5 z m 228,-52 c 56,-53 65,-160 16,-209 -19,-19 -34,-23 -84,-23 h -60 v 114 c 0,63 3,121 6,130 4,11 19,16 49,16 33,0 50,-6 73,-28 z" />
        <path
           inkscape:connector-curvature="0"
           id="path9277"
           d="m 25138,4540 c 21,-20 22,-27 22,-263 0,-203 -3,-246 -16,-265 l -15,-22 h 144 145 l 6,31 c 10,50 7,54 -16,31 -47,-43 -102,-49 -155,-14 -22,13 -23,21 -23,129 v 115 l 61,-4 c 48,-3 66,-9 80,-26 9,-12 19,-22 22,-22 3,0 7,19 8,43 l 4,43 -87,-4 -88,-4 v 112 112 l 66,-4 c 55,-3 70,-8 86,-27 22,-28 23,-27 31,22 l 6,37 h -152 -151 z" />
        <path
           inkscape:connector-curvature="0"
           id="path9357"
           d="m 24195,3605 v -155 h 35 c 26,0 31,3 22,12 -8,8 -12,54 -12,143 0,89 4,135 12,143 9,9 4,12 -22,12 h -35 z" />
        <path
           inkscape:connector-curvature="0"
           id="path9359"
           d="m 24360,3753 c -68,-27 -67,-76 4,-146 63,-64 75,-90 50,-118 -23,-25 -62,-24 -91,3 -22,21 -23,21 -23,2 0,-11 5,-25 12,-32 27,-27 116,-3 138,37 20,38 10,62 -50,125 -33,35 -60,69 -60,77 0,38 50,51 82,23 16,-16 18,-15 24,0 4,9 4,19 1,22 -8,8 -71,14 -87,7 z" />
        <path
           inkscape:connector-curvature="0"
           id="path9387"
           d="m 23692,3259 c -164,-32 -260,-182 -231,-361 25,-155 127,-245 299,-263 71,-7 176,7 223,31 27,14 28,18 22,57 -4,23 -8,43 -10,45 -1,1 -17,-12 -36,-29 -51,-48 -113,-73 -166,-65 -99,13 -194,81 -237,168 -36,71 -37,180 -2,254 51,110 185,168 309,133 46,-12 105,-62 113,-96 9,-36 21,-16 28,49 7,67 13,63 -119,78 -103,11 -133,11 -193,-1 z" />
        <path
           inkscape:connector-curvature="0"
           id="path9389"
           d="m 24325,3261 c -104,-28 -183,-94 -215,-177 -22,-61 -27,-183 -10,-246 26,-93 129,-176 245,-198 140,-26 277,39 343,164 23,44 27,62 26,136 0,69 -5,95 -24,135 -31,63 -101,134 -163,164 -52,25 -150,36 -202,22 z m 55,-311 c 0,-180 -4,-280 -10,-280 -6,0 -10,100 -10,280 0,180 4,280 10,280 6,0 10,-100 10,-280 z m 60,0 c 0,-180 -4,-280 -10,-280 -6,0 -10,100 -10,280 0,180 4,280 10,280 6,0 10,-100 10,-280 z m -100,-1 v -270 l -22,6 c -38,12 -92,60 -118,106 -20,36 -25,61 -28,140 -5,108 4,147 48,208 25,34 87,79 113,81 4,0 7,-122 7,-271 z m 186,239 c 125,-84 154,-328 52,-444 -26,-29 -94,-74 -113,-74 -3,0 -5,124 -5,275 0,153 4,275 9,275 5,0 31,-15 57,-32 z" />
        <path
           inkscape:connector-curvature="0"
           id="path9391"
           d="m 25698,3247 c 21,-23 22,-30 22,-297 0,-267 -1,-274 -22,-297 l -21,-23 h 83 83 l -21,23 c -21,23 -22,30 -22,297 0,267 1,274 22,297 l 21,23 h -83 -83 z" />
        <path
           inkscape:connector-curvature="0"
           id="path9393"
           d="m 26448,3247 c 22,-23 22,-29 20,-241 l -3,-217 -225,237 -225,237 -3,-293 c -2,-286 -3,-295 -24,-317 l -21,-23 h 83 83 l -27,25 -26,24 v 211 c 0,137 4,210 10,208 6,-2 107,-104 226,-228 119,-124 220,-226 225,-228 5,-2 8,125 8,285 0,278 3,323 22,323 5,0 9,5 9,10 0,6 -32,10 -77,10 h -76 z" />
        <path
           inkscape:connector-curvature="0"
           id="path9395"
           d="m 26902,3259 c -146,-28 -238,-144 -236,-299 1,-149 66,-252 190,-300 79,-31 235,-34 306,-7 l 47,18 3,122 c 3,118 4,122 28,134 22,11 14,13 -65,13 -79,0 -87,-2 -65,-13 24,-12 25,-17 28,-118 3,-130 0,-134 -102,-134 -86,1 -144,24 -210,85 -66,61 -90,117 -90,209 1,130 64,222 175,255 123,37 223,5 269,-84 l 18,-35 6,40 c 4,22 9,52 11,67 5,32 1,34 -120,48 -103,11 -133,11 -193,-1 z" />
        <path
           inkscape:connector-curvature="0"
           id="path9399"
           d="m 24879,2968 c -34,-266 -39,-294 -59,-310 -22,-18 -21,-18 61,-18 h 83 l -22,20 c -12,12 -22,32 -22,45 0,29 40,318 45,323 1,2 44,-75 94,-171 51,-96 98,-183 105,-192 11,-15 25,6 110,161 104,190 104,190 110,183 5,-5 76,-304 76,-320 0,-5 -12,-21 -26,-34 l -27,-25 h 83 83 l -20,23 c -17,18 -29,76 -67,307 -26,157 -49,286 -51,288 -3,3 -75,-132 -201,-376 -46,-90 -60,-111 -68,-99 -6,8 -63,121 -126,250 -63,130 -117,236 -120,236 -3,1 -21,-130 -41,-291 z" />
      </g>
      <g
         id="g6073"
         transform="matrix(0.35684484,0,0,0.35684484,-2702.3729,-2104.1085)">
        <path
           d="m 18990,18898 c -291,-24 -586,-159 -712,-326 -94,-125 -175,-271 -234,-424 -35,-89 -84,-275 -84,-315 0,-12 -14,-45 -32,-73 -48,-78 -50,-200 -3,-200 25,0 19,-14 -32,-80 -2,-2 -8,1 -12,8 -14,23 -44,-55 -38,-100 4,-32 0,-49 -26,-89 -46,-74 -49,-146 -9,-220 30,-54 30,-57 13,-82 -9,-15 -42,-52 -72,-84 -163,-173 -189,-218 -189,-328 0,-42 4,-84 10,-94 7,-14 -2,-29 -48,-77 -32,-32 -65,-75 -75,-96 -23,-48 -22,-106 3,-143 25,-38 25,-42 0,-50 -62,-20 -79,-93 -33,-140 25,-24 33,-27 80,-23 72,6 183,63 262,135 l 64,58 -6,-60 c -7,-67 5,-53 -206,-245 -112,-101 -124,-109 -175,-110 -36,0 -38,1 -33,28 5,26 4,26 -9,7 -40,-55 -93,-145 -85,-145 5,0 14,7 21,15 7,8 58,37 114,64 72,35 123,69 176,116 75,67 148,120 156,112 2,-2 -7,-36 -21,-76 -14,-40 -24,-78 -22,-84 6,-19 276,323 352,448 27,44 62,95 79,113 32,35 84,67 93,58 3,-3 0,-25 -6,-50 -26,-104 -6,-189 60,-255 19,-19 72,-59 119,-90 64,-42 137,-108 291,-266 252,-258 265,-278 262,-430 -1,-71 -10,-140 -32,-239 -17,-76 -30,-141 -27,-143 7,-7 133,250 150,306 20,67 20,129 2,198 -28,106 -49,133 -275,355 -195,193 -225,226 -276,312 -31,53 -70,126 -87,163 -29,65 -64,211 -52,222 13,14 44,-50 68,-142 14,-55 46,-142 70,-194 48,-101 93,-151 291,-328 84,-76 88,-78 58,-34 -18,25 -84,94 -147,154 -71,66 -127,128 -146,160 -31,54 -68,180 -57,192 13,13 36,-20 47,-70 12,-51 45,-127 55,-127 3,0 -3,17 -13,38 -18,35 -38,112 -29,112 3,0 16,-24 31,-53 14,-30 36,-62 47,-73 14,-12 10,-2 -11,27 -18,26 -31,52 -29,58 7,20 174,-129 239,-211 33,-43 63,-78 66,-78 8,0 -109,222 -144,273 -15,23 -65,72 -112,110 -168,136 -211,191 -248,322 -20,70 -38,265 -24,265 4,0 40,-52 80,-115 76,-118 172,-254 172,-243 0,18 -108,256 -154,338 -30,52 -58,111 -64,130 -16,51 -32,215 -32,326 0,86 3,100 21,120 l 22,23 -52,-19 c -113,-44 -177,-5 -151,90 18,66 73,102 230,147 46,14 102,34 123,45 21,10 41,17 44,15 2,-3 -5,-27 -18,-54 -12,-26 -23,-57 -24,-69 -2,-36 -52,-108 -109,-157 l -56,-48 v -58 c 0,-141 42,-286 152,-521 25,-52 51,-113 58,-135 7,-22 16,-44 21,-50 18,-18 -23,102 -73,215 -80,183 -120,313 -126,406 -3,61 -1,84 10,95 8,8 20,28 27,46 7,18 19,38 27,44 12,10 14,3 14,-39 0,-51 26,-135 76,-247 13,-32 27,-55 29,-53 3,2 -2,38 -10,80 -8,41 -12,83 -10,94 2,10 9,54 16,97 6,42 15,77 20,77 13,0 62,-221 69,-315 7,-84 7,-80 8,60 0,83 -3,174 -7,203 -21,144 38,-29 95,-281 21,-95 52,-198 76,-255 40,-95 41,-100 49,-257 6,-123 14,-182 34,-255 17,-61 29,-140 34,-221 9,-133 23,-175 92,-276 29,-42 108,-123 121,-123 4,0 -22,42 -56,93 -94,138 -97,146 -107,281 -5,67 -19,175 -31,241 -16,90 -22,168 -23,310 l -3,190 -46,125 c -70,186 -97,296 -103,431 -6,118 2,229 16,229 13,0 75,-175 127,-355 25,-88 56,-186 68,-217 24,-58 115,-212 122,-205 2,2 -7,30 -20,63 -70,173 -128,366 -145,486 -22,159 28,331 109,377 23,13 44,21 46,18 3,-3 -15,-45 -40,-94 -55,-110 -69,-178 -56,-276 11,-89 54,-273 75,-324 9,-21 13,-48 10,-60 -4,-16 5,-37 29,-70 97,-138 99,-171 31,-608 -34,-214 -36,-345 -7,-435 12,-36 49,-114 83,-175 34,-60 79,-145 101,-189 21,-43 41,-76 44,-73 6,6 -47,154 -112,314 -80,194 -102,313 -56,295 10,-3 45,-34 79,-69 34,-35 67,-63 74,-63 17,0 2,51 -54,190 -47,114 -51,132 -52,207 0,45 4,85 8,89 11,12 27,-16 27,-47 0,-52 51,-226 89,-305 21,-44 73,-127 116,-185 43,-57 91,-131 106,-164 15,-33 28,-54 29,-47 0,24 -58,127 -125,221 -82,114 -129,213 -161,339 -45,179 -29,174 66,-22 83,-174 162,-281 280,-381 119,-101 163,-154 211,-251 31,-60 41,-95 42,-134 2,-49 0,-54 -37,-86 l -39,-34 h 27 c 41,0 83,26 94,58 20,57 -18,167 -92,272 -53,74 -51,78 8,20 41,-39 69,-78 96,-135 61,-128 74,-229 45,-354 -9,-35 -14,-66 -12,-68 10,-10 67,71 78,109 16,59 -1,160 -40,243 -69,149 -179,276 -343,400 -127,95 -238,241 -283,374 -14,41 -25,77 -25,81 0,3 36,-12 80,-34 136,-67 220,-60 280,24 l 23,32 -33,-17 c -25,-13 -47,-16 -85,-11 -104,12 -196,69 -270,168 -55,73 -157,274 -153,301 6,42 52,62 156,67 l 97,5 -2,42 c -2,51 -33,112 -73,146 -17,15 -60,35 -95,46 -190,59 -284,154 -292,295 -6,103 18,147 114,204 78,46 91,60 158,165 49,77 47,88 -5,21 -42,-55 -125,-132 -169,-157 -47,-27 -36,-7 20,38 28,22 85,81 126,130 85,100 163,179 170,171 2,-2 -3,-16 -12,-30 -10,-14 -15,-26 -12,-26 4,0 18,20 32,45 26,43 83,100 92,91 2,-2 -2,-17 -10,-33 -23,-44 -35,-98 -52,-236 -26,-216 -77,-281 -270,-343 -85,-27 -51,-32 63,-8 91,19 106,25 154,72 32,30 38,33 44,19 3,-10 1,-23 -5,-31 -14,-17 5,-26 53,-26 36,0 63,-23 90,-77 9,-18 20,-33 24,-33 4,-1 26,-5 50,-9 23,-5 42,-7 42,-5 0,2 -14,11 -30,19 -24,12 -130,111 -130,121 0,1 40,-18 89,-42 92,-45 115,-51 126,-34 3,6 24,10 45,10 21,0 42,-4 45,-10 10,-17 25,-11 25,9 0,11 25,48 55,83 76,87 86,154 27,176 -44,16 -263,82 -274,82 -7,0 -6,-5 1,-14 10,-11 -3,-15 -74,-21 -48,-4 -89,-5 -91,-2 -11,10 36,202 64,261 30,64 62,96 170,169 94,64 194,60 263,-13 94,-98 124,-203 116,-408 l -5,-134 -36,-30 c -20,-16 -52,-50 -71,-75 -30,-40 -35,-53 -35,-103 0,-58 25,-145 74,-254 44,-99 30,-129 -45,-90 -24,12 -47,14 -108,8 -65,-5 -80,-4 -94,11 -11,11 -15,25 -11,41 10,39 -2,28 -41,-37 -34,-55 -44,-89 -16,-55 9,11 17,8 46,-21 33,-33 37,-35 84,-28 58,8 66,0 46,-48 -11,-26 -12,-43 -5,-62 14,-36 30,-31 30,11 0,51 14,71 57,79 21,3 50,18 65,32 41,39 44,73 13,140 -34,72 -75,191 -75,215 0,13 7,18 26,18 16,0 23,4 18,11 -4,8 1,9 17,4 l 24,-6 -25,20 c -20,16 -22,21 -10,25 8,4 16,17 16,31 1,14 18,43 38,65 l 36,40 v 183 c 0,100 -4,199 -9,221 -6,23 -6,63 0,100 14,86 -8,184 -63,288 -120,228 -437,426 -814,508 -120,26 -280,37 -394,28 z m 387,-57 c 369,-81 733,-321 809,-532 16,-45 35,-179 25,-178 -13,1 -70,99 -61,104 6,3 10,18 9,33 0,23 -1,24 -8,7 -7,-18 -18,-20 -112,-21 -112,-1 -164,-12 -318,-70 -51,-19 -95,-33 -97,-31 -6,6 26,31 76,60 25,15 40,27 35,27 -6,0 -46,-20 -89,-45 -87,-50 -104,-55 -66,-23 20,17 21,20 5,14 -194,-73 -268,-85 -580,-96 -192,-7 -255,-13 -315,-29 -41,-11 -79,-21 -84,-21 -5,0 40,32 99,72 109,72 194,149 274,246 25,31 78,76 125,106 44,29 90,63 101,76 18,20 12,19 -44,-11 -36,-19 -116,-81 -182,-140 -64,-59 -138,-121 -164,-139 -55,-38 -234,-124 -242,-116 -11,11 40,75 109,137 40,35 86,79 103,98 36,41 78,101 70,101 -3,0 -36,-29 -74,-64 -41,-39 -80,-66 -100,-71 -18,-4 -34,-5 -36,-3 -2,2 13,26 35,53 21,28 49,63 61,79 l 22,28 -23,-12 c -12,-6 -96,-86 -187,-176 -91,-90 -168,-163 -170,-160 -10,9 39,112 83,173 27,38 109,130 183,206 l 136,139 -60,-34 c -69,-39 -211,-175 -284,-273 -55,-73 -122,-130 -107,-90 15,42 73,130 129,196 31,38 53,69 48,69 -16,0 -120,-131 -164,-205 -49,-84 -46,-79 -52,-74 -13,14 122,235 186,304 23,25 35,43 25,39 -26,-10 -140,-159 -177,-232 -23,-44 -35,-60 -38,-47 -7,36 78,181 165,279 46,53 82,96 78,96 -12,0 -121,-90 -162,-134 -57,-62 -112,-149 -142,-224 -28,-71 -42,-81 -29,-21 20,90 134,269 208,328 68,53 209,138 261,156 48,17 187,50 270,64 88,16 331,5 437,-18 z m 262,-734 c -2,-2 -33,-25 -69,-52 -36,-27 -130,-112 -209,-189 -141,-138 -142,-140 -91,-69 83,115 215,243 295,285 39,20 72,35 74,32 2,-2 2,-5 0,-7 z m -304,-66 70,-6 -62,-28 c -118,-53 -190,-55 -598,-20 -108,9 -73,-4 45,-17 58,-6 156,-23 218,-36 78,-18 134,-25 182,-22 39,2 70,1 70,-2 0,-3 -20,-15 -44,-28 -24,-13 -74,-45 -111,-72 -76,-56 -115,-70 -195,-70 -54,0 -130,26 -144,49 -9,14 -11,14 48,-4 27,-8 61,-15 75,-14 17,1 10,4 -18,10 -25,5 -84,27 -133,50 -72,35 -90,40 -103,29 -12,-10 -29,-7 -95,20 -105,42 -125,59 -116,93 7,31 1,30 266,52 107,9 204,18 215,19 38,6 360,4 430,-3 z m -979,-117 c 44,-9 88,-24 99,-34 11,-10 38,-27 60,-38 22,-11 49,-30 60,-42 l 20,-22 -37,-33 c -42,-39 -78,-50 -202,-64 -49,-6 -111,-18 -137,-26 -44,-15 -91,-55 -101,-86 -3,-8 -9,-9 -17,-4 -9,5 -12,25 -9,68 l 4,60 -29,-37 c -16,-20 -33,-36 -37,-36 -12,0 -5,62 10,89 23,44 0,33 -27,-12 -15,-26 -32,-47 -37,-47 -12,0 3,89 24,137 32,73 140,132 261,142 9,0 52,-6 95,-15 z m -406,-189 c -12,-37 -10,-116 4,-147 13,-29 -21,-22 -40,7 -20,30 -15,72 15,141 24,54 39,53 21,-1 z m 1860,-22 c 25,-16 59,-52 60,-65 0,-3 -27,-4 -59,-1 -67,6 -151,-4 -151,-18 0,-5 16,-9 35,-9 19,0 35,-4 35,-9 0,-5 -16,-12 -35,-15 -19,-4 -35,-11 -35,-16 0,-13 10,-13 60,5 47,16 110,20 110,6 0,-8 -41,-16 -147,-28 -39,-4 -59,-1 -77,11 l -25,16 25,67 c 14,37 31,71 37,76 18,12 139,-3 167,-20 z m -1444,-42 c -3,-4 -18,-11 -34,-14 -54,-11 -143,-49 -172,-74 -20,-16 -30,-20 -30,-11 0,42 64,80 165,97 70,12 77,12 71,2 z m 1414,-124 c 0,-8 11,-19 25,-25 21,-10 27,-9 31,3 4,8 10,12 15,9 13,-8 11,-48 -3,-62 -9,-9 -9,-12 2,-12 7,0 11,-2 8,-5 -7,-8 -58,16 -58,27 0,5 -6,8 -12,7 -28,-3 -47,2 -68,19 l -23,18 34,17 c 41,20 49,21 49,4 z m 37,-3 c -3,-3 -12,-4 -19,-1 -8,3 -5,6 6,6 11,1 17,-2 13,-5 z m -1697,-19 c 15,-18 7,-53 -20,-88 -26,-33 -117,-56 -155,-39 -33,15 -32,32 8,69 69,66 140,91 167,58 z m -73,-166 c -8,-11 -46,-49 -85,-83 -57,-52 -75,-63 -96,-59 -41,8 -51,27 -30,63 19,32 25,35 89,45 22,3 58,17 80,30 50,29 60,30 42,4 z m 64,-214 c -34,-19 -86,-52 -116,-74 -61,-46 -210,-195 -227,-226 -6,-11 27,18 73,64 92,92 178,160 251,197 75,38 89,31 41,-18 -45,-48 -133,-165 -133,-179 0,-29 98,8 150,57 26,24 50,44 54,44 15,0 4,-94 -16,-138 -12,-26 -23,-49 -26,-52 -2,-3 -56,-8 -120,-11 -149,-7 -205,-25 -277,-91 -59,-53 -73,-55 -101,-13 -26,40 -5,74 148,226 136,137 220,203 301,239 66,30 65,11 -2,-25 z m 30,-457 c -6,-27 -12,-34 -36,-36 -19,-3 -33,2 -42,14 -19,26 -16,32 20,43 59,17 65,15 58,-21 z m -226,-55 c -18,-75 -142,-230 -209,-262 -96,-47 -139,1 -77,86 51,70 230,203 275,203 15,0 17,-5 11,-27 z m -386,-248 c -12,-20 -25,-52 -29,-71 -7,-31 -5,-40 15,-60 13,-13 44,-28 69,-35 25,-6 46,-15 46,-19 0,-14 -29,-32 -76,-46 -45,-13 -49,-13 -70,7 -58,54 -55,118 8,203 46,62 69,75 37,21 z m 890,-231 c 49,-98 88,-180 87,-181 -4,-4 -111,70 -139,96 -73,66 -101,161 -72,237 10,28 21,42 26,37 5,-5 49,-90 98,-189 z"
           id="path4645" />
        <path
           d="m 19822,18450 c -29,-16 -83,-51 -120,-78 -105,-78 -244,-144 -385,-181 -40,-11 -61,-20 -47,-20 72,-2 360,119 438,183 53,44 126,89 171,107 35,14 40,18 21,18 -14,1 -49,-12 -78,-29 z"
           id="path4647" />
        <path
           d="m 19415,18414 c -77,-48 -191,-102 -308,-144 -64,-24 -115,-45 -113,-48 7,-6 188,56 264,89 62,28 202,114 202,124 0,7 -1,7 -45,-21 z"
           id="path4649" />
        <path
           d="m 19405,18310 c -64,-31 -191,-74 -340,-115 -49,-14 -72,-22 -50,-19 59,8 232,52 293,74 60,23 172,78 172,85 0,9 -13,4 -75,-25 z"
           id="path4651" />
        <path
           d="m 18950,18210 c -8,-5 -10,-10 -5,-10 6,0 17,5 25,10 8,5 11,10 5,10 -5,0 -17,-5 -25,-10 z"
           id="path4653" />
        <path
           d="m 18888,18184 c -39,-21 -35,-28 5,-8 37,19 44,24 31,24 -5,-1 -21,-8 -36,-16 z"
           id="path4655" />
        <path
           d="m 18948,18163 c 7,-3 16,-2 19,1 4,3 -2,6 -13,5 -11,0 -14,-3 -6,-6 z"
           id="path4657" />
        <path
           d="m 19198,18163 c 6,-2 18,-2 25,0 6,3 1,5 -13,5 -14,0 -19,-2 -12,-5 z"
           id="path4659" />
        <path
           d="m 18516,17150 c 6,-38 67,-186 118,-290 78,-156 116,-298 116,-431 0,-85 28,-210 50,-224 5,-3 0,20 -11,51 -14,40 -22,93 -25,178 -8,191 -16,222 -110,419 -47,98 -99,213 -115,255 -16,42 -27,61 -23,42 z"
           id="path4765" />
        <path
           d="m 19005,17145 c 14,-63 40,-133 96,-262 32,-73 65,-157 74,-187 17,-57 22,-187 12,-291 -6,-59 -6,-59 4,-15 17,71 15,256 -4,326 -9,34 -43,119 -75,190 -33,71 -68,156 -78,189 -19,65 -40,100 -29,50 z"
           id="path4767" />
        <path
           d="m 18561,17112 c -1,-19 54,-136 119,-253 68,-120 98,-197 109,-284 l 8,-60 2,55 c 2,92 -24,163 -122,339 -52,91 -98,177 -105,191 -6,14 -11,19 -11,12 z"
           id="path4769" />
        <path
           d="m 19956,16834 c -81,-28 -126,-31 -126,-9 0,17 -32,20 -61,5 -16,-9 -49,-58 -49,-75 0,-3 13,-5 28,-5 15,0 61,-16 101,-35 41,-20 76,-33 78,-31 3,3 -13,17 -36,33 -22,15 -40,32 -41,37 -1,22 144,-29 162,-58 13,-19 9,-43 -10,-66 l -19,-23 -56,26 c -44,20 -54,22 -50,9 5,-12 2,-14 -11,-9 -76,29 -90,9 -40,-57 19,-26 42,-63 50,-83 l 16,-36 19,42 c 10,24 41,64 69,90 45,42 50,52 50,89 0,33 5,45 24,57 34,23 64,81 48,97 -9,9 -12,6 -12,-16 0,-27 -2,-28 -32,-22 -18,4 -39,13 -47,21 -13,13 -13,17 4,30 26,19 23,18 -59,-11 z"
           id="path4785" />
        <path
           d="m 18650,16050 c 12,-16 24,-30 26,-30 3,0 -4,14 -16,30 -12,17 -24,30 -26,30 -3,0 4,-13 16,-30 z"
           id="path4821" />
      </g>
      <g
         id="g8412"
         transform="matrix(0.60491656,0,0,0.60491656,2985.9122,2224.7404)">
        <path
           d="m 7535.7033,7837.96 c -42,-82 -43,-87 0,-71 19,8 26,21 37,70 7,34 17,61 22,61 5,0 6,5 3,10 -12,19 -21,9 -62,-70 z"
           id="path4631" />
        <path
           d="m 6990.7033,7780.96 c -27,-32 -30,-44 -38,-141 -5,-69 -14,-111 -31,-144 -13,-27 -26,-48 -31,-48 -4,0 -15,23 -25,51 -20,57 -39,71 -59,44 -21,-29 -16,-40 5,-14 l 19,24 11,-28 c 6,-16 11,-34 11,-40 0,-7 9,-23 20,-37 17,-22 21,-24 41,-12 11,8 18,9 14,3 -3,-6 0,-11 7,-11 13,0 70,111 62,120 -3,2 -14,-6 -24,-20 -11,-14 -20,-19 -20,-12 0,8 14,27 31,43 28,26 29,29 10,29 -14,0 -23,8 -27,26 -9,34 12,133 33,156 9,10 14,20 11,23 -3,3 -12,-3 -20,-12 z"
           id="path4633" />
        <path
           d="m 7263.7033,7764.96 c -6,-16 -11,-35 -11,-42 0,-8 -17,-23 -37,-34 -21,-11 -58,-34 -83,-50 -25,-17 -48,-31 -52,-31 -10,0 -30,39 -39,75 l -7,30 -1,-30 c 0,-16 8,-44 18,-61 l 19,-32 -25,-23 c -44,-42 -74,-105 -89,-191 -16,-95 -28,-113 -45,-75 -14,31 -26,34 -32,10 -4,-14 -5,-13 -6,4 -1,28 -21,41 -21,14 0,-23 -15,-28 -23,-8 -3,6 -6,0 -6,-14 -2,-55 -13,-90 -26,-79 -15,13 -31,-164 -28,-321 l 2,-107 -37,9 c -20,5 -44,8 -52,8 -27,0 17,-20 62,-27 23,-4 43,-12 45,-18 5,-15 -39,-26 -51,-14 -6,6 -15,10 -20,10 -6,0 5,-14 24,-31 27,-23 29,-28 10,-18 -14,7 -38,23 -54,36 -32,27 -63,27 -58,0 2,-9 -2,-17 -8,-17 -5,0 -10,-12 -10,-26 0,-14 4,-22 10,-19 5,3 7,0 4,-9 -10,-25 55,-210 102,-293 55,-95 84,-127 140,-150 l 44,-18 v -86 c 0,-95 12,-140 57,-211 27,-42 29,-53 26,-119 -3,-83 -23,-124 -72,-154 -18,-11 -50,-35 -71,-52 -32,-28 -45,-33 -88,-33 -28,0 -54,5 -57,10 -7,11 -57,13 -91,4 -15,-4 -21,-14 -21,-35 0,-16 4,-29 9,-29 4,0 8,11 8,24 0,20 7,25 37,31 24,4 39,3 41,-4 2,-6 12,-11 22,-11 10,0 21,-7 24,-16 4,-11 12,-14 24,-9 41,17 46,16 22,-5 l -25,-21 40,19 c 58,28 167,64 173,57 10,-10 -13,-22 -93,-49 -107,-35 -113,-39 -84,-60 32,-22 53,-20 124,10 33,14 69,28 80,31 48,12 -28,-36 -90,-57 -36,-12 -63,-26 -59,-31 11,-18 -9,-9 -48,23 -39,31 -40,31 -33,7 4,-13 33,-80 65,-149 32,-69 70,-165 85,-215 29,-98 89,-235 102,-235 4,0 19,10 33,21 l 25,20 -24,-6 c -15,-5 -21,-3 -17,3 10,16 102,44 133,40 23,-2 -5,-20 -151,-98 -237,-126 -214,-131 64,-16 83,35 140,46 140,27 0,-5 -9,-12 -19,-16 -18,-5 -58,-72 -49,-81 11,-10 94,44 106,68 11,24 9,35 -18,100 -60,140 -48,256 34,322 24,20 51,36 61,36 13,0 7,-9 -22,-30 -23,-17 -44,-38 -48,-47 -5,-13 -1,-12 18,5 24,23 62,28 87,12 12,-8 16,-3 20,23 4,28 9,32 38,35 39,4 41,-8 12,-94 -27,-76 -78,-162 -110,-183 -26,-18 -27,-20 3,49 l 15,35 -45,-4 c -45,-3 -46,-3 -39,23 4,15 2,26 -4,26 -5,0 -10,8 -11,18 0,12 -3,10 -11,-8 -17,-42 -3,-165 26,-224 14,-29 26,-58 26,-64 0,-6 -14,-34 -32,-62 l -32,-51 60,-57 c 53,-52 64,-70 112,-186 82,-196 86,-276 5,-91 -44,102 -127,236 -172,279 -17,17 -31,38 -31,49 0,14 -5,17 -22,11 -26,-7 -48,-23 -48,-33 0,-3 19,-14 41,-24 26,-13 46,-31 59,-57 10,-20 28,-40 38,-42 14,-4 22,-18 27,-49 5,-31 17,-53 42,-76 l 34,-33 h -30 c -31,0 -39,-13 -22,-38 5,-8 21,-12 41,-10 47,4 48,-16 0,-35 -22,-8 -40,-20 -40,-26 0,-14 6,-14 48,1 30,11 35,11 48,-6 12,-17 12,-22 -4,-39 -16,-18 -16,-19 13,-16 25,3 31,0 33,-18 4,-30 16,-29 40,2 12,15 30,25 45,25 14,0 28,7 31,16 9,24 8,25 -18,18 -21,-5 -23,-3 -18,21 3,17 14,30 30,36 21,8 23,12 12,19 -13,8 -12,12 5,29 19,19 23,19 60,6 22,-8 48,-14 59,-15 32,0 -1,28 -46,41 -34,9 -39,13 -34,32 3,12 6,25 6,30 0,4 16,0 36,-8 20,-8 40,-15 45,-15 20,0 7,30 -21,50 -41,29 -39,50 5,50 38,0 40,2 24,31 -24,46 55,107 116,90 40,-11 48,-6 34,21 -19,35 -9,35 100,1 13,-4 12,-1 -3,11 -10,8 -43,21 -72,27 -30,7 -54,16 -54,21 0,10 3,10 37,-2 25,-9 26,-9 10,4 -18,14 -18,15 0,25 21,11 87,-10 282,-88 57,-23 106,-40 109,-37 2,3 -6,10 -19,15 -13,5 -86,34 -161,65 -75,31 -170,68 -210,82 -88,31 -100,41 -64,50 39,9 97,-1 205,-36 103,-33 110,-34 96,-21 -6,5 -68,28 -140,51 -162,53 -174,59 -110,60 38,0 69,-9 124,-35 41,-20 76,-33 79,-30 3,3 1,5 -5,5 -5,0 -22,11 -36,24 l -26,24 34,128 c 19,71 43,158 53,194 l 19,65 -51,15 c -45,14 -51,19 -51,43 1,33 -3,33 -67,1 -68,-35 -162,-65 -166,-54 -4,10 -58,-4 -80,-22 -13,-11 -15,-10 -9,5 5,14 0,17 -36,18 -23,1 -32,4 -19,6 12,2 22,7 22,10 0,2 -10,14 -22,25 l -23,19 27,-5 c 19,-4 30,-1 36,11 9,15 13,15 43,-9 19,-14 45,-29 59,-33 22,-7 21,-4 -12,29 -21,20 -38,41 -38,45 0,5 16,9 35,8 31,-1 33,-3 20,-17 -16,-18 -10,-32 23,-49 17,-9 31,-9 62,0 l 40,12 -36,39 c -29,32 -34,45 -29,66 10,43 23,47 22,7 -1,-49 40,-89 81,-78 41,10 109,41 92,42 -9,1 -38,23 -65,51 -39,39 -47,52 -37,62 10,10 16,7 29,-12 24,-36 83,-90 96,-90 7,1 22,6 35,13 22,13 21,13 -11,13 -40,0 -91,34 -112,75 -20,37 -11,37 21,0 14,-17 49,-39 80,-50 l 55,-21 37,25 c 20,14 41,25 46,25 20,0 -21,-33 -73,-60 -31,-15 -66,-36 -78,-46 -26,-22 -35,-65 -14,-72 8,-3 11,0 7,7 -8,12 7,14 41,5 12,-3 24,-13 25,-23 3,-10 12,0 26,29 33,68 101,183 122,204 13,13 34,19 78,20 33,1 64,5 69,9 19,20 -62,37 -82,18 -6,-5 -34,-11 -63,-13 -50,-5 -59,-2 -130,42 -42,25 -89,54 -103,63 -24,16 -27,16 -33,2 -3,-9 -1,-25 4,-36 6,-11 7,-19 1,-19 -5,0 -11,7 -15,15 -10,26 -23,16 -18,-14 3,-22 -4,-40 -29,-70 -39,-49 -53,-46 -15,3 14,19 26,45 26,58 -1,21 -2,21 -17,-7 -19,-35 -79,-105 -86,-99 -2,3 -18,-9 -36,-25 -17,-16 -27,-32 -22,-35 5,-4 14,2 20,11 5,10 13,15 17,11 13,-14 -17,-38 -40,-32 -17,4 -25,-1 -34,-22 -7,-14 -15,-24 -19,-21 -3,4 -23,-3 -45,-14 -35,-18 -52,-20 -130,-14 -113,8 -130,14 -199,81 -32,30 -62,54 -67,54 -8,0 -32,42 -32,56 0,10 39,-17 63,-43 13,-16 42,-47 63,-71 l 39,-43 103,-10 c 68,-6 109,-6 120,0 14,8 10,10 -19,11 -48,0 -64,19 -43,49 22,31 11,49 -32,53 -61,5 -55,28 8,28 43,1 49,3 35,11 -12,7 -40,8 -75,4 -72,-9 -59,6 16,21 l 57,10 -74,14 c -79,15 -75,26 12,33 23,2 50,7 60,12 10,4 24,2 34,-6 14,-12 15,-11 9,9 -9,27 8,29 26,4 13,-19 97,-72 113,-72 5,0 -12,13 -38,30 -26,16 -47,34 -47,40 0,13 31,-2 50,-24 7,-9 17,-16 22,-16 5,0 -6,14 -24,32 -18,18 -32,39 -30,46 3,11 -7,13 -41,11 -25,-2 -43,-1 -40,4 2,4 12,8 21,9 9,0 -29,4 -86,8 -79,5 -108,11 -129,26 -33,25 -50,51 -39,61 5,4 10,3 12,-2 2,-6 22,-9 44,-7 37,4 40,2 40,-22 0,-31 -9,-33 -38,-6 -17,16 -22,17 -22,6 0,-9 9,-20 20,-26 28,-15 250,-24 250,-10 0,5 -9,10 -20,10 -11,0 -20,4 -20,8 0,11 45,32 68,32 10,0 23,5 29,11 17,17 66,6 78,-16 11,-23 47,-22 38,1 -3,9 1,14 13,14 15,0 16,2 5,9 -8,5 -11,16 -8,25 9,23 -11,30 -32,12 -10,-9 -24,-16 -31,-16 -7,0 -1,11 14,25 36,34 33,43 -5,11 -18,-15 -43,-26 -60,-26 -16,0 -29,-4 -29,-10 0,-5 -8,-10 -17,-10 -17,1 -17,1 0,14 9,7 17,19 17,25 0,7 31,45 69,85 49,51 71,69 75,59 3,-8 -2,-26 -11,-41 -15,-24 -13,-23 20,7 42,40 44,43 20,39 -33,-6 -25,30 14,59 36,26 49,39 55,54 2,4 14,10 28,14 25,7 25,7 -5,-26 -27,-29 -27,-31 -5,-16 56,38 65,39 34,6 -41,-45 -71,-90 -89,-133 -20,-48 -10,-46 14,2 11,22 43,56 70,78 28,21 51,42 51,47 0,4 -6,5 -12,1 -7,-4 3,9 21,29 19,21 30,37 24,37 -7,0 -14,-4 -18,-10 -3,-5 -13,-6 -21,-3 -12,5 -5,15 30,45 26,22 53,54 62,72 14,28 14,29 -1,11 -46,-60 -93,-96 -154,-120 -83,-32 -104,-44 -76,-45 17,-1 16,-4 -10,-25 -16,-14 -35,-25 -41,-25 -15,0 -27,44 -14,48 12,4 13,32 2,32 -4,0 -13,-5 -20,-12 -20,-20 -15,12 5,34 9,10 18,38 20,61 l 3,42 -18,-42 c -20,-48 -39,-71 -28,-33 5,14 10,39 12,55 4,28 3,27 -15,-10 -11,-22 -20,-33 -20,-24 -1,21 -24,69 -33,69 -5,0 -8,-13 -8,-29 0,-16 -7,-34 -15,-41 -8,-7 -15,-17 -15,-23 0,-5 9,-2 21,9 21,19 21,18 40,-5 30,-37 24,-79 -21,-136 -21,-27 -37,-52 -34,-55 3,-2 10,4 16,14 6,11 26,36 44,55 24,26 34,31 34,19 0,-17 -51,-90 -98,-140 -14,-15 -23,-30 -20,-33 5,-5 73,72 102,118 22,33 36,35 36,5 -1,-14 -29,-53 -76,-102 -64,-67 -78,-77 -99,-72 -14,4 -25,11 -25,16 0,6 -13,4 -29,-4 -16,-9 -31,-12 -35,-9 -3,4 -6,0 -6,-8 0,-8 5,-20 11,-26 8,-8 7,-13 -2,-18 -13,-8 -39,19 -39,41 0,7 -14,17 -30,23 -17,5 -33,18 -36,28 -3,10 -16,42 -30,72 -14,29 -23,55 -21,58 3,2 22,-16 43,-41 21,-25 40,-44 42,-42 6,6 -18,48 -42,74 l -21,24 30,-13 c 45,-20 56,-30 50,-50 -4,-13 2,-22 21,-32 28,-14 28,-14 6,-26 -44,-24 -13,-47 39,-29 28,9 30,14 27,44 -4,37 5,44 21,17 5,-10 11,-16 13,-13 2,3 19,23 38,44 35,39 25,41 -17,3 -22,-20 -24,-20 -43,-2 -10,9 -26,15 -35,12 -8,-4 -15,-2 -15,3 0,5 9,11 19,15 24,7 35,34 20,51 -14,17 -29,9 -29,-17 0,-34 -32,-21 -93,41 -33,33 -64,60 -69,60 -4,0 -8,-16 -8,-35 0,-41 -12,-45 -28,-10 -17,38 -15,62 9,86 21,21 21,21 42,1 24,-21 61,-42 74,-42 4,0 1,6 -7,13 -35,27 -60,71 -60,103 0,19 5,34 10,34 6,0 10,-6 10,-13 0,-7 7,-22 15,-33 10,-14 9,-2 -5,46 -25,81 -25,81 5,45 28,-34 31,-20 10,40 -18,49 -18,48 -1,42 8,-3 17,-1 19,6 2,7 13,-3 23,-20 11,-18 25,-35 33,-38 11,-4 12,-3 1,10 -7,9 -10,27 -7,44 4,18 2,31 -5,33 -6,2 -4,10 6,21 10,9 15,21 11,26 -9,15 33,23 83,17 32,-4 41,-3 27,3 -11,5 -37,10 -58,10 -21,1 -36,5 -33,10 4,5 -11,7 -34,4 -48,-7 -52,6 -11,39 16,13 36,40 45,62 l 16,38 -36,49 c -20,27 -38,49 -40,49 -6,0 0,-10 33,-59 13,-19 23,-42 23,-51 0,-26 -39,-70 -62,-70 -20,0 -20,1 -3,26 9,15 12,23 6,20 -11,-7 -20,7 -25,37 -3,20 -83,107 -98,107 -7,0 4,-14 25,-31 43,-35 67,-76 67,-114 0,-35 -21,-32 -59,10 -17,19 -50,44 -73,56 -44,23 -120,78 -127,92 -2,5 -15,13 -29,18 -19,7 -22,13 -14,21 18,18 14,27 -10,20 -17,-4 -20,-2 -15,12 4,10 7,24 7,32 0,24 54,17 80,-11 16,-17 34,-25 57,-25 18,0 33,4 33,9 0,4 -10,6 -23,4 -30,-6 -55,21 -38,41 10,12 5,23 -22,59 -39,51 -51,98 -38,145 5,17 6,32 1,32 -13,0 -20,-28 -20,-81 0,-80 -31,-57 -44,33 -4,25 -4,69 0,97 5,40 10,51 25,51 14,0 61,-16 77,-26 2,-1 -3,-16 -12,-32 -14,-26 -14,-31 -1,-42 8,-7 15,-17 15,-22 0,-5 22,-32 50,-61 l 50,-52 v 38 c 0,20 -4,37 -9,37 -5,0 -7,-10 -4,-22 4,-17 -4,-12 -33,21 -43,50 -65,87 -56,95 3,4 18,-9 34,-26 l 29,-33 -16,33 c -15,31 -15,32 5,32 28,0 61,-17 83,-44 15,-16 18,-17 13,-3 -4,13 1,17 24,17 39,0 76,-35 59,-56 -6,-8 -18,-14 -25,-14 -9,0 -14,-11 -14,-28 0,-28 16,-52 34,-52 6,0 5,5 -2,12 -7,7 -12,23 -12,36 0,22 2,23 17,11 15,-12 16,-12 10,4 -4,12 -1,17 11,17 37,0 62,-13 62,-31 0,-11 5,-19 10,-19 6,0 10,7 10,15 0,8 8,15 18,16 14,0 13,3 -5,11 -14,7 -25,24 -29,45 -4,20 -16,41 -30,50 -21,13 -24,21 -18,52 3,20 12,49 20,65 22,45 8,43 -15,-3 -28,-53 -28,-104 0,-122 13,-9 22,-27 23,-47 2,-37 -3,-39 -35,-13 -19,15 -24,30 -27,86 -4,61 -6,66 -17,45 l -12,-23 -17,24 c -23,34 -20,39 25,39 24,0 38,4 34,10 -3,6 -20,10 -36,10 -17,0 -32,6 -35,15 -10,25 -22,17 -16,-11 5,-25 3,-26 -27,-22 -28,4 -31,2 -25,-16 3,-12 17,-36 31,-53 20,-27 21,-33 8,-33 -31,0 -57,22 -76,66 -19,42 -19,47 -4,107 16,62 45,110 45,75 0,-9 5,-20 11,-24 8,-4 9,0 4,15 -4,12 -2,21 4,21 6,0 8,6 5,13 -5,13 24,42 85,85 25,17 29,23 14,20 -17,-5 -23,0 -28,21 -9,35 -33,71 -48,71 -6,0 -4,-5 5,-11 10,-5 22,-28 29,-51 10,-39 9,-44 -13,-61 -35,-28 -51,-43 -75,-71 -13,-15 -32,-26 -47,-26 -26,0 -96,55 -96,76 0,11 -22,24 -41,24 -5,0 -9,-7 -9,-15 0,-8 6,-12 14,-9 9,3 17,-3 21,-15 3,-12 13,-21 21,-21 8,0 14,-7 14,-15 0,-18 31,-35 64,-35 31,0 30,2 10,-46 -14,-34 -17,-37 -29,-21 -7,9 -24,17 -39,17 -35,0 -96,26 -96,41 0,6 -6,9 -14,6 -8,-3 -20,1 -27,9 -10,12 -8,19 11,39 20,21 22,28 12,50 -11,23 -9,27 30,51 48,30 170,84 191,84 8,0 28,7 43,15 38,20 14,19 -59,-2 l -60,-16 -28,34 -28,34 z m 37,-17 c 14,-23 8,-40 -14,-40 -9,0 -14,11 -14,30 0,35 10,38 28,10 z m -130,-176 c 2,-14 -11,-30 -43,-53 -57,-41 -59,-6 -2,57 24,26 41,24 45,-4 z m -114,-80 c 3,-9 6,-34 6,-57 0,-23 12,-84 26,-135 14,-52 24,-112 22,-135 l -3,-42 -34,53 c -18,29 -39,74 -45,100 l -11,47 -5,-82 c -3,-45 -8,-85 -13,-89 -4,-4 -5,32 -2,82 5,84 4,87 -9,54 -18,-43 -19,-28 -6,79 12,89 32,141 54,141 8,0 17,-7 20,-16 z m 114,-16 c 23,-13 42,-28 42,-35 0,-7 19,-13 47,-15 39,-2 50,-8 59,-27 14,-28 4,-65 -19,-69 -8,-2 -34,2 -56,8 -33,9 -41,15 -41,34 0,13 -7,29 -15,36 -13,11 -14,8 -9,-19 6,-26 3,-32 -20,-41 -14,-5 -26,-12 -26,-15 0,-3 12,-33 26,-67 19,-46 22,-63 13,-68 -9,-6 -6,-17 10,-44 13,-20 21,-41 19,-47 -6,-17 -57,37 -63,68 -4,15 -17,67 -31,116 -38,140 -40,161 -13,186 28,26 25,26 77,-1 z m 308,-165 c -3,-7 0,-13 7,-13 13,0 42,-39 34,-46 -6,-7 -37,7 -37,17 0,4 -11,20 -25,35 -19,20 -22,30 -13,35 16,10 40,-10 34,-28 z m -585,-225 c 20,-27 25,-48 11,-48 -15,0 -63,112 -68,158 -5,47 -4,46 17,-18 12,-36 30,-77 40,-92 z m 23,47 c 6,-46 5,-48 -9,-31 -8,12 -15,39 -15,65 1,57 15,37 24,-34 z m -95,7 c 1,-13 8,-36 16,-52 13,-26 13,-29 1,-24 -17,7 -31,-34 -23,-66 3,-11 1,-20 -3,-20 -15,0 -22,40 -14,83 4,23 7,65 6,92 -1,37 1,45 7,30 5,-11 10,-30 10,-43 z m 367,-54 c 51,-36 54,-42 19,-36 -35,7 -31,2 15,-22 22,-11 40,-22 40,-25 0,-4 -31,0 -85,10 -20,4 -45,53 -45,88 0,23 5,22 56,-15 z m -74,-80 c -2,-9 -13,-24 -23,-34 -29,-26 -23,-33 16,-21 31,9 38,8 60,-13 14,-13 25,-27 25,-32 0,-14 -44,-9 -68,8 -13,9 -29,13 -37,10 -8,-3 -15,0 -15,6 0,7 -5,6 -15,-2 -15,-13 -21,-2 -7,16 4,5 -1,1 -10,-9 -10,-11 -18,-25 -18,-33 0,-7 -5,-16 -12,-20 -8,-5 -9,-2 -3,12 4,10 8,30 9,43 1,33 88,123 97,101 3,-8 4,-22 1,-32 z m -222,-162 c 7,-7 10,1 10,24 0,26 3,31 12,22 9,-9 9,-23 1,-59 -12,-48 -10,-223 2,-243 3,-5 1,-10 -5,-10 -15,0 -30,44 -30,87 0,28 -9,45 -41,80 -22,25 -38,48 -34,51 4,4 10,1 13,-7 6,-18 40,-51 52,-51 15,0 12,84 -6,152 -9,38 -12,72 -8,92 7,26 9,18 16,-48 4,-44 12,-84 18,-90 z m -103,52 c -3,-7 -5,-2 -5,12 0,14 2,19 5,13 2,-7 2,-19 0,-25 z m 434,-24 c 20,-3 60,-24 89,-46 29,-22 72,-48 95,-58 25,-11 44,-27 48,-39 6,-26 1,-26 -41,-1 -37,23 -49,25 -34,7 6,-7 43,-28 82,-47 56,-27 68,-36 58,-47 -26,-25 -171,30 -200,77 -6,10 -18,16 -25,13 -7,-3 -13,0 -13,6 0,11 -68,61 -83,61 -5,0 7,-18 27,-40 20,-22 36,-44 36,-49 0,-4 10,-13 23,-19 40,-19 -8,-14 -78,9 -53,18 -70,20 -91,10 -14,-6 -34,-11 -44,-11 -26,0 -25,-11 1,-44 12,-15 19,-29 16,-32 -11,-11 -47,51 -47,80 0,37 30,90 61,106 12,7 37,10 55,7 38,-6 47,7 12,17 -40,10 -56,7 -87,-20 -17,-14 -31,-23 -31,-19 0,12 23,50 44,73 22,25 23,25 127,6 z m -191,-56 c 0,-17 -18,-44 -24,-37 -8,7 5,49 15,49 5,0 9,-6 9,-12 z m -70,-102 c -7,-7 -10,1 -9,25 0,32 1,33 10,10 6,-16 6,-28 -1,-35 z m -175,24 c 3,-5 2,-10 -4,-10 -5,0 -13,5 -16,10 -3,6 -2,10 4,10 5,0 13,-4 16,-10 z m -60,-32 c 7,-7 -2,-8 -25,-3 -19,4 -39,12 -45,17 -7,7 2,8 25,3 19,-4 40,-12 45,-17 z m 131,-55 c -8,-9 -46,32 -46,50 0,7 12,-1 27,-15 15,-15 23,-31 19,-35 z m 187,-52 22,-24 -22,14 c -23,14 -38,39 -47,79 -4,17 0,13 10,-10 9,-19 25,-46 37,-59 z m -63,24 c 0,-30 -4,-55 -10,-55 -11,0 -14,93 -3,103 12,12 13,8 13,-48 z m -26,-120 c 5,-56 5,-55 -15,28 -14,58 -18,97 -13,115 7,24 9,20 15,-28 4,-30 10,-82 13,-115 z m 410,131 c 9,-13 7,-20 -8,-32 -19,-13 -18,-14 15,-15 55,-1 4,-17 -57,-18 -39,-1 -58,4 -75,19 l -24,21 32,-16 c 18,-8 42,-15 55,-14 21,1 20,2 -5,9 -44,13 -58,29 -47,50 18,33 93,30 114,-4 z m -669,-67 c 9,-17 14,-36 12,-42 -3,-9 -37,54 -37,69 0,12 12,0 25,-27 z m 416,-32 c -5,-4 -29,-3 -55,4 -33,8 -46,16 -46,29 0,16 4,16 54,-4 30,-11 51,-25 47,-29 z m -321,-49 c 0,-2 -9,-4 -21,-3 -22,2 -31,13 -44,54 -7,22 -4,21 29,-11 20,-19 36,-37 36,-40 z m 570,57 c -15,-18 -86,-20 -96,-4 -5,8 3,10 27,6 19,-3 43,-2 54,3 28,12 29,12 15,-5 z m -190,-31 c 0,-2 -7,-4 -15,-4 -8,0 -15,4 -15,10 0,5 7,7 15,4 8,-4 15,-8 15,-10 z m -425,-74 c 28,-44 45,-51 45,-19 0,19 4,20 43,14 50,-8 53,-11 62,-54 5,-23 4,-31 -4,-27 -6,4 -11,16 -11,27 0,17 -3,18 -20,7 -12,-8 -20,-24 -20,-40 0,-30 -13,-43 -37,-34 -14,6 -14,8 1,25 16,18 16,20 -6,35 -12,9 -27,16 -33,16 -9,0 -55,71 -55,84 0,14 12,3 35,-34 z m 428,-83 c 37,-38 67,-71 67,-73 0,-2 -34,19 -76,48 -65,44 -144,122 -144,142 0,16 92,-54 153,-117 z m 136,107 c 10,-9 -95,-3 -109,6 -9,6 6,7 45,3 33,-3 62,-7 64,-9 z m 58,-19 c -38,-34 -88,-41 -142,-20 -25,9 -48,21 -52,27 -4,8 0,9 13,3 40,-16 109,-17 144,-2 54,23 69,20 37,-8 z m -362,-31 c 11,-20 35,-48 55,-62 64,-47 109,-111 53,-75 -27,17 -28,17 -13,-1 15,-18 14,-19 -15,-3 -41,21 -81,65 -99,109 -30,70 -15,94 19,32 z m 295,-28 c 14,0 34,4 45,9 20,8 20,8 2,-13 -18,-19 -22,-20 -64,-7 -25,8 -48,17 -51,21 -4,3 4,3 18,-2 14,-5 36,-8 50,-8 z m 20,-47 c 12,-7 11,-8 -6,-9 -11,0 -29,7 -40,16 -18,14 -18,15 6,8 14,-3 32,-10 40,-15 z m -60,-14 c 7,-8 8,-15 2,-15 -5,0 -15,7 -22,15 -7,8 -8,15 -2,15 5,0 15,-7 22,-15 z m 50,-30 c 7,-9 8,-15 2,-15 -5,0 -12,7 -16,15 -3,8 -4,15 -2,15 2,0 9,-7 16,-15 z m -213,-81 c 30,-31 52,-58 50,-61 -7,-6 -74,54 -98,88 -33,47 -9,33 48,-27 z m 83,-9 c 13,-14 21,-27 18,-30 -2,-3 -17,9 -33,25 -16,17 -24,30 -19,30 6,0 21,-11 34,-25 z m -115,-91 c 11,-18 13,-24 4,-19 -24,14 -60,49 -71,69 -9,17 -8,17 20,-2 16,-12 37,-33 47,-48 z m 411,-109 c 25,-53 30,-75 15,-75 -17,0 -58,62 -81,120 -12,30 -26,59 -31,65 -5,5 -9,14 -9,20 1,19 81,-80 106,-130 z m -166,75 c -8,-15 -6,-29 9,-59 11,-21 26,-41 33,-44 7,-2 21,-19 31,-36 18,-30 18,-31 -1,-31 -22,0 -53,32 -77,78 -10,22 -21,32 -31,28 -8,-3 -14,-3 -14,0 0,16 46,84 57,84 2,0 -1,-9 -7,-20 z m 92,-71 c 29,-38 47,-89 30,-89 -6,0 -23,17 -38,38 -16,20 -34,42 -42,49 -10,8 -12,21 -7,43 7,30 8,31 19,12 6,-11 23,-35 38,-53 z m -113,-78 c -7,-2 -18,4 -26,15 -22,30 -15,39 13,13 16,-15 21,-25 13,-28 z m -108,17 c 11,-13 24,-31 30,-41 10,-17 9,-18 -14,-3 -22,15 -54,66 -41,66 3,0 14,-10 25,-22 z m 323,-35 c 9,4 16,-3 20,-16 9,-34 -2,-33 -37,3 -18,19 -24,28 -15,21 10,-7 24,-11 32,-8 z m 64,-22 c 3,-8 -1,-12 -9,-9 -7,2 -15,10 -17,17 -3,8 1,12 9,9 7,-2 15,-10 17,-17 z m 112,-6 c 0,-8 -7,-15 -16,-15 -14,0 -14,3 -4,15 7,8 14,15 16,15 2,0 4,-7 4,-15 z m 50,11 c 0,-2 -8,-10 -17,-17 -16,-13 -17,-12 -4,4 13,16 21,21 21,13 z m -170,-66 c 0,-23 -25,-27 -33,-6 -7,16 1,26 20,26 7,0 13,-9 13,-20 z m 89,11 c 9,-6 11,-16 7,-27 -7,-18 -8,-18 -21,-1 -8,12 -15,14 -20,8 -12,-20 -26,-12 -15,9 12,22 27,25 49,11 z m -577,-91 c 11,-25 29,-55 40,-67 12,-13 17,-23 11,-23 -16,0 -40,32 -73,95 -35,70 -35,72 -14,54 9,-8 25,-34 36,-59 z m 134,-56 c 45,-46 74,-94 56,-94 -17,1 -142,131 -142,147 0,11 -7,28 -15,39 -29,38 -13,38 18,0 18,-21 55,-63 83,-92 z m 212,61 c 9,-9 -28,-17 -51,-11 -12,3 -35,17 -52,30 l -30,25 65,-20 c 35,-11 66,-22 68,-24 z m -362,-70 c 6,-19 8,-35 4,-35 -9,0 -30,46 -30,67 0,23 12,8 26,-32 z m 984,24 c 0,-6 -4,-7 -10,-4 -5,3 -10,11 -10,16 0,6 5,7 10,4 6,-3 10,-11 10,-16 z m 125,-71 c 44,-18 82,-34 84,-35 3,-2 -4,-9 -14,-17 -39,-28 -244,3 -233,35 4,13 4,13 89,-1 67,-12 112,-7 53,5 -67,14 -104,26 -104,35 0,5 7,6 17,3 12,-5 14,-3 8,7 -6,9 -4,12 6,7 8,-3 50,-21 94,-39 z m -1251,-20 c -5,-8 -2,-9 9,-5 10,4 24,10 34,14 39,16 -2,-20 -44,-38 -63,-27 -74,-23 -33,11 37,32 45,37 34,18 z m 239,-71 c 20,-32 37,-63 37,-69 0,-16 -48,31 -55,53 -4,11 -12,16 -21,12 -11,-4 -14,4 -14,38 0,24 4,39 8,34 4,-6 24,-36 45,-68 z m 127,-3 c 0,-10 -36,16 -60,42 -23,26 -22,25 18,-5 23,-18 42,-35 42,-37 z m -206,31 c -4,-8 -8,-15 -10,-15 -2,0 -4,7 -4,15 0,8 4,15 10,15 5,0 7,-7 4,-15 z m 444,-31 c 19,-5 23,-12 20,-38 -3,-36 -25,-44 -69,-26 -28,12 -40,46 -22,63 8,9 41,9 71,1 z m 492,-96 c 0,-19 -49,-5 -74,21 -23,24 -27,35 -21,58 l 7,28 44,-50 c 24,-27 44,-53 44,-57 z m -736,13 c 11,-12 17,-24 13,-27 -7,-7 -107,85 -107,98 0,11 64,-38 94,-71 z m 39,17 c 34,-19 41,-28 39,-47 -2,-13 2,-27 9,-32 8,-4 10,-11 7,-14 -12,-12 -25,4 -32,35 -4,21 -17,37 -41,51 -33,20 -42,29 -30,29 3,0 25,-10 48,-22 z m 602,-18 c 10,-11 16,-20 13,-20 -3,0 -13,9 -23,20 -10,11 -16,20 -13,20 3,0 13,-9 23,-20 z m -854,-14 c -7,-8 -37,-25 -67,-37 -36,-15 -50,-25 -42,-31 23,-14 58,-9 108,17 52,26 70,31 70,16 0,-5 -26,-20 -57,-34 l -58,-25 36,-7 c 32,-6 83,6 164,40 17,8 18,7 7,-7 -7,-8 -33,-23 -59,-33 -40,-15 -44,-20 -28,-26 36,-14 99,-9 144,11 50,23 51,23 51,11 0,-5 -21,-19 -47,-32 -26,-12 -42,-24 -35,-27 7,-2 28,6 48,18 40,25 56,20 29,-10 -11,-12 -31,-20 -50,-20 -49,0 -290,72 -359,108 l -30,15 55,17 c 29,9 68,24 84,33 37,20 51,21 36,3 z m 1077,-26 c 6,0 12,-5 12,-11 0,-13 -50,-3 -65,13 -7,8 -2,9 15,4 14,-3 31,-6 38,-6 z m -625,-44 c 12,-32 -40,-49 -64,-20 -11,13 -9,14 14,9 22,-6 26,-4 21,9 -4,10 -1,16 9,16 8,0 17,-6 20,-14 z m -545,-42 c -3,-3 -27,-12 -52,-19 -49,-15 -65,-3 -18,13 29,11 79,15 70,6 z m 701,-31 c 24,-8 59,-29 78,-46 56,-49 68,-80 67,-182 0,-95 -14,-134 -64,-180 -27,-24 -25,-13 8,54 22,46 27,69 26,126 -1,141 -94,235 -233,235 -25,0 -32,3 -22,9 18,11 84,4 140,-16 z m -209,7 c 0,-5 -14,-10 -31,-10 -17,0 -28,4 -24,10 3,6 17,10 31,10 13,0 24,-4 24,-10 z m 320,-10 c -6,-11 -15,-20 -21,-20 -6,0 -6,7 1,20 6,11 15,20 21,20 6,0 6,-7 -1,-20 z m -770,-10 c 9,-17 8,-20 -7,-20 -10,0 -36,-9 -58,-20 l -40,-20 40,6 c 22,3 50,8 61,10 17,5 24,-1 33,-27 14,-41 14,-39 -8,-39 -10,0 -35,-7 -56,-16 -20,-8 -38,-14 -39,-12 -16,29 -49,118 -45,121 6,4 93,34 101,36 4,0 12,-8 18,-19 z m 1085,9 c 4,-5 4,-20 1,-33 -5,-22 -7,-23 -53,-11 -37,9 -49,17 -51,34 -3,19 1,21 47,21 27,0 53,-5 56,-11 z m -439,-28 c 76,-35 119,-120 112,-220 -5,-70 -8,-76 -42,-67 -22,5 -36,18 -111,101 -30,33 -22,19 42,-75 l 43,-62 -20,-25 c -14,-19 -20,-41 -20,-82 -1,-41 -8,-71 -28,-111 -16,-30 -47,-91 -69,-135 -62,-121 -71,-163 -18,-83 45,68 39,30 -12,-78 -37,-78 -48,-94 -51,-75 -7,43 18,141 64,247 24,57 44,107 44,112 0,4 -10,25 -21,47 -36,66 -40,92 -22,136 8,22 12,43 8,47 -3,4 -36,9 -73,12 l -66,5 29,20 c 33,22 108,25 159,5 39,-14 43,-7 9,16 -20,14 -46,19 -94,19 -55,0 -72,-4 -107,-28 -23,-15 -42,-23 -42,-18 0,5 16,35 35,66 19,32 42,79 51,104 10,25 25,66 35,91 l 17,45 21,-47 c 12,-26 26,-50 31,-53 5,-3 1,15 -10,40 -11,26 -20,51 -20,56 0,16 83,9 126,-10 z m 385,-42 c 43,-15 41,-12 30,-42 l -10,-25 -45,17 c -56,21 -62,27 -46,46 15,18 26,19 71,4 z m -976,-88 c 0,-15 -93,-54 -112,-46 -23,8 -14,31 20,48 38,19 92,18 92,-2 z m 980,-30 c -8,-33 -12,-36 -27,-24 -7,6 -29,14 -48,18 -32,7 -33,8 -12,16 12,5 22,15 22,23 0,12 6,12 36,3 31,-10 35,-14 29,-36 z m -955,-40 c 17,-34 12,-51 -15,-51 -15,0 -39,-7 -55,-15 -29,-15 -30,-14 -45,15 -17,33 -15,35 65,60 37,12 38,12 50,-9 z m 899,-2 c 31,-11 39,-31 22,-57 -7,-11 -16,-11 -49,-1 -41,12 -48,26 -29,57 10,15 16,15 56,1 z m -869,-78 c 0,-5 3,-16 6,-25 5,-12 0,-16 -20,-16 -15,0 -43,-7 -63,-15 -29,-12 -38,-13 -45,-3 -13,22 -9,33 20,50 29,18 102,24 102,9 z m 300,-104 c 23,-3 44,-7 46,-10 3,-3 -9,-32 -27,-66 -30,-58 -31,-61 -15,-85 9,-14 16,-33 16,-43 0,-10 8,-29 17,-42 17,-25 26,-121 11,-121 -4,0 -8,8 -8,18 0,10 -23,70 -52,132 -45,99 -52,125 -55,190 -4,69 -3,73 11,54 10,-13 30,-23 56,-27 z m 331,-62 c 12,-22 35,-54 51,-71 29,-31 29,-31 6,-27 -41,8 -133,-101 -204,-243 -33,-65 -70,-143 -82,-171 -11,-29 -26,-53 -31,-53 -17,0 -14,13 30,112 72,165 129,264 183,324 l 54,59 -28,55 c -15,30 -31,66 -34,80 l -7,25 21,-25 c 11,-14 30,-43 41,-65 z m -28,-75 c -8,-19 -90,-110 -98,-110 -5,0 15,66 38,125 8,22 18,49 22,60 6,18 9,15 27,-19 13,-26 17,-45 11,-56 z m -378,16 c 9,-14 19,-51 22,-83 l 5,-58 -51,50 c -51,49 -62,80 -39,103 19,19 46,14 63,-12 z m 101,-253 c 11,-29 14,-47 7,-54 -7,-7 -17,9 -31,46 -26,68 -29,100 -7,71 8,-11 22,-39 31,-63 z"
           id="path4635" />
        <path
           d="m 7292.7033,6631.96 c 0,-17 22,-14 28,4 2,7 -3,12 -12,12 -9,0 -16,-7 -16,-16 z"
           id="path4637" />
        <path
           d="m 7608.7033,7779.96 c -11,-11 -6,-18 16,-19 44,-4 155,-43 201,-73 44,-27 67,-37 67,-26 0,2 3,13 7,23 6,15 5,16 -9,5 -14,-11 -25,-8 -73,19 -59,33 -200,81 -209,71 z"
           id="path4639" />
        <path
           d="m 7023.7033,7761.96 c 0,-11 3,-14 6,-6 3,7 2,16 -1,19 -3,4 -6,-2 -5,-13 z"
           id="path4641" />
        <path
           d="m 8198.7033,7666.96 c -9,-29 -14,-129 -7,-129 5,0 11,30 14,68 5,65 2,90 -7,61 z"
           id="path4661" />
        <path
           d="m 7632.7033,7651.96 c -14,-7 -20,-14 -13,-14 6,0 18,-2 25,-5 9,-4 14,2 15,15 1,11 1,20 0,19 -1,-1 -13,-7 -27,-15 z"
           id="path4663" />
        <path
           d="m 7952.7033,7617.96 c 15,-14 48,-40 74,-58 26,-18 45,-36 42,-41 -3,-5 1,-15 10,-22 22,-19 40,8 49,72 7,50 7,50 27,32 21,-18 21,-18 7,5 -21,34 -42,23 -51,-27 -4,-24 -9,-46 -12,-48 -4,-4 -103,59 -151,96 -12,9 -9,5 5,-9 z"
           id="path4665" />
        <path
           d="m 8223.7033,7637.96 c 0,-8 4,-24 9,-35 l 9,-20 v 20 c 0,11 -4,27 -9,35 -9,13 -10,13 -9,0 z"
           id="path4667" />
        <path
           d="m 7007.7033,7557.96 c -3,-5 -1,-10 4,-10 6,0 11,5 11,10 0,6 -2,10 -4,10 -3,0 -8,-4 -11,-10 z"
           id="path4669" />
        <path
           d="m 7626.7033,7546.96 c -10,-16 -1,-20 74,-31 101,-15 183,-68 92,-60 -39,4 -40,3 -40,-27 0,-17 5,-31 10,-31 6,0 10,9 10,20 0,17 7,20 40,20 44,0 118,-32 126,-55 5,-13 -5,-33 -44,-93 -7,-10 -16,-9 -48,4 -21,9 -57,16 -78,16 -22,-1 -52,6 -67,14 -30,15 -58,56 -43,61 29,10 75,45 72,56 -6,17 -116,68 -160,75 -29,3 -38,1 -38,-10 0,-8 -11,-20 -25,-26 -14,-6 -25,-17 -25,-23 0,-6 15,0 34,15 19,14 46,26 60,26 29,0 136,-45 136,-57 0,-5 -16,-17 -36,-28 -44,-24 -56,-44 -44,-81 4,-16 9,-23 9,-16 1,10 8,9 31,-3 21,-11 30,-23 30,-40 0,-31 -25,-33 -40,-4 -18,33 -24,14 -7,-20 9,-17 18,-44 22,-61 4,-17 16,-35 27,-41 12,-6 31,-23 43,-37 l 22,-26 71,23 c 39,12 76,29 84,38 12,15 10,14 -19,0 -18,-10 -42,-17 -55,-17 -21,0 -20,2 8,19 41,25 51,41 25,41 -17,0 -65,18 -130,49 -27,13 -38,40 -21,52 21,14 94,5 126,-15 24,-17 25,-19 9,-42 -15,-23 -15,-24 13,-24 27,0 80,29 55,30 -7,0 -17,8 -22,18 -8,14 -3,28 18,61 17,25 27,51 24,62 -3,11 -29,35 -58,55 -67,44 -85,64 -59,65 11,0 -19,8 -66,16 -47,8 -97,21 -112,28 -18,8 -30,10 -34,4 z m 278,-314 c 0,-5 -5,-11 -11,-13 -6,-2 -11,4 -11,13 0,9 5,15 11,13 6,-2 11,-8 11,-13 z m -135,-21 c 34,-13 41,-20 32,-30 -6,-7 -27,-16 -46,-20 -38,-7 -56,4 -68,44 -5,18 -3,22 16,22 13,0 43,-7 66,-16 z m 82,-49 c -8,-9 -33,-18 -55,-21 l -39,-5 35,20 c 19,11 44,20 55,21 17,0 18,-2 4,-15 z"
           id="path4671" />
        <path
           d="m 8252.7033,7452.96 c 0,-8 2,-15 4,-15 2,0 6,7 10,15 3,8 1,15 -4,15 -6,0 -10,-7 -10,-15 z"
           id="path4675" />
        <path
           d="m 8145.7033,7404.96 c 4,-10 7,-25 7,-34 0,-9 6,-13 14,-10 9,4 17,-4 21,-21 l 7,-27 19,24 c 10,13 19,28 19,35 0,6 -7,3 -14,-6 -15,-20 -26,-23 -26,-9 0,6 -12,23 -27,38 -18,19 -24,22 -20,10 z"
           id="path4677" />
        <path
           d="m 6783.7033,7341.96 c 0,-11 3,-14 6,-6 3,7 2,16 -1,19 -3,4 -6,-2 -5,-13 z"
           id="path4679" />
        <path
           d="m 8235.7033,7277.96 c -7,-29 -8,-51 -2,-62 5,-10 13,-50 18,-90 5,-40 9,-59 10,-43 2,37 24,121 34,131 12,13 8,24 -8,18 -9,-4 -15,-19 -15,-35 0,-16 -4,-29 -10,-29 -5,0 -10,35 -12,77 l -3,77 z"
           id="path4681" />
        <path
           d="m 8012.7033,7132.96 c -14,-8 -33,-14 -42,-15 -9,0 -20,-5 -24,-11 -5,-9 3,-10 28,-5 48,9 68,-14 39,-43 -21,-21 -32,-25 -62,-22 -30,3 -37,-22 -12,-46 l 23,-22 45,52 c 25,28 45,47 45,41 0,-10 -69,-90 -197,-228 -52,-56 -54,-60 -48,-100 4,-22 8,-45 9,-51 2,-16 19,-25 51,-25 39,0 63,-15 40,-24 -31,-12 -85,-6 -104,12 -10,9 -31,27 -45,40 -50,46 -44,104 21,183 l 27,34 -31,-28 c -17,-16 -39,-46 -48,-68 -10,-21 -26,-41 -36,-44 -13,-4 -18,-19 -21,-63 -2,-31 -3,-59 -1,-61 7,-10 14,10 20,58 6,55 17,66 27,26 3,-13 22,-41 42,-61 26,-26 33,-39 25,-47 -7,-7 -17,-7 -36,1 -14,6 -25,8 -25,3 0,-4 12,-13 26,-20 22,-10 25,-16 21,-41 -5,-23 -3,-28 8,-23 11,4 15,-3 16,-28 1,-19 3,-26 6,-16 6,25 14,21 48,-25 60,-82 158,-135 203,-108 14,7 10,9 -18,10 -42,1 -108,29 -134,59 -30,33 -12,35 35,4 37,-24 54,-28 128,-31 56,-2 81,0 72,6 -11,8 -9,12 9,22 38,21 15,21 -31,0 -55,-25 -92,-25 -146,0 -46,20 -58,35 -20,25 20,-5 20,-5 -3,9 -25,15 -25,15 20,16 25,0 52,5 60,10 11,7 7,10 -17,10 -18,0 -33,5 -33,10 0,6 13,10 29,10 16,0 34,6 40,14 9,11 5,12 -27,3 -44,-12 -100,-3 -128,19 -19,15 -19,15 1,8 43,-16 115,-16 140,0 32,21 42,20 50,-4 3,-11 12,-20 20,-20 7,0 16,-6 18,-12 4,-10 6,-10 6,0 1,6 11,13 24,13 17,1 15,3 -8,8 -18,4 -30,13 -30,23 0,9 -9,26 -19,37 -23,25 -15,27 19,5 14,-9 25,-23 25,-32 0,-23 17,-2 25,31 6,23 4,27 -14,27 -12,0 -21,5 -21,10 0,6 9,10 19,10 11,0 23,5 26,10 9,14 -13,12 -60,-5 -42,-15 -115,-20 -115,-8 0,4 10,17 22,30 21,22 21,24 3,17 -14,-6 -6,8 23,44 24,29 47,52 51,52 3,0 12,10 20,22 12,19 9,19 -18,-5 -34,-28 -58,-36 -44,-14 8,12 64,98 70,106 7,9 54,-44 73,-83 13,-27 20,-34 20,-21 0,11 -16,44 -36,74 -36,53 -39,72 -18,125 5,13 4,17 -4,12 -6,-4 -17,-25 -23,-46 -7,-22 -16,-40 -21,-40 -5,0 -6,10 -2,23 22,71 12,51 -66,-123 -28,-63 -58,-122 -66,-131 -19,-21 -91,-25 -74,-3 7,7 9,17 6,22 -3,5 2,20 12,33 57,74 74,99 69,99 -3,0 -33,-36 -67,-79 -34,-44 -67,-82 -75,-84 -19,-8 -31,79 -13,101 7,9 60,71 118,138 58,66 121,143 140,170 l 35,49 -30,-23 -29,-23 -13,26 c -8,14 -15,25 -16,25 -1,-1 -13,-7 -27,-15 z m 20,-520 c 18,-21 -24,-54 -70,-55 -36,0 -80,23 -80,41 0,28 128,40 150,14 z m -210,-30 c -9,-11 -9,-15 -1,-15 7,0 11,-6 9,-12 -1,-7 4,-24 11,-38 l 14,-25 -27,24 c -36,33 -34,72 3,80 2,1 -2,-6 -9,-14 z m 105,-75 c 3,-5 1,-10 -4,-10 -6,0 -11,5 -11,10 0,6 2,10 4,10 3,0 8,-4 11,-10 z"
           id="path4685" />
        <path
           d="m 7954.7033,6606.96 c 2,-7 10,-15 17,-17 8,-3 12,1 9,9 -2,7 -10,15 -17,17 -8,3 -12,-1 -9,-9 z"
           id="path4687" />
        <path
           d="m 8096.7033,7020.96 c -65,-102 -66,-103 -59,-103 5,0 80,114 104,158 24,46 3,19 -45,-55 z"
           id="path4691" />
        <path
           d="m 7392.7033,7042.96 c 17,-25 36,-45 41,-45 6,0 -6,20 -27,45 -20,25 -38,45 -41,45 -2,0 10,-20 27,-45 z"
           id="path4693" />
        <path
           d="m 8290.7033,6942.96 c -17,-125 -31,-186 -40,-177 -6,6 -6,17 1,30 17,32 12,39 -9,14 -15,-18 -17,-28 -10,-42 6,-10 10,-30 10,-44 0,-14 10,-34 22,-45 19,-19 20,-23 8,-48 -8,-16 -15,-53 -15,-83 -1,-48 -19,-154 -41,-245 -4,-17 -3,-26 2,-22 10,9 33,93 34,122 1,48 22,95 50,111 15,10 33,28 39,41 14,30 14,36 1,28 -5,-3 -10,-1 -10,5 0,6 -5,8 -10,5 -6,-4 -8,-11 -5,-16 4,-5 2,-16 -2,-24 -8,-13 -13,-12 -32,9 -23,25 -21,46 4,46 7,0 15,6 18,13 3,8 10,7 26,-7 21,-19 21,-19 21,8 0,15 -4,25 -9,22 -5,-4 -11,0 -14,6 -3,10 -8,9 -22,-2 -17,-14 -18,-13 -12,3 4,9 2,17 -4,17 -15,0 -2,50 19,74 17,19 16,19 -11,1 -15,-10 -30,-16 -32,-13 -3,2 4,47 16,98 11,52 19,110 17,129 -3,33 -4,32 -10,-14 z"
           id="path4695" />
        <path
           d="m 6622.7033,6798.96 c 0,-14 5,-19 15,-14 17,6 15,25 -3,31 -7,2 -12,-5 -12,-17 z"
           id="path4701" />
        <path
           d="m 8125.7033,6785.96 c -24,-32 -24,-41 1,-19 33,31 55,17 35,-20 -11,-22 -11,-23 4,-10 9,7 24,11 32,7 8,-3 15,-1 15,4 0,6 -4,10 -10,10 -5,0 -10,6 -10,14 0,25 -51,35 -67,14 z"
           id="path4705" />
        <path
           d="m 8370.7033,6760.96 c 7,-3 16,-2 19,1 4,3 -2,6 -13,5 -11,0 -14,-3 -6,-6 z"
           id="path4707" />
        <path
           d="m 8357.7033,6716.96 c -39,-35 -40,-51 -1,-25 23,15 54,56 42,56 -3,0 -21,-14 -41,-31 z"
           id="path4711" />
        <path
           d="m 7932.7033,6342.96 c 7,-8 10,-21 7,-29 -4,-10 5,-7 27,7 19,12 33,22 32,23 0,1 -18,4 -39,7 -33,5 -37,4 -27,-8 z"
           id="path4739" />
        <path
           d="m 8062.7033,6307.96 c -25,-16 -50,-30 -56,-30 -7,0 -22,-9 -35,-21 -31,-26 -20,-22 69,25 39,21 72,42 72,47 0,12 0,13 -50,-21 z"
           id="path4741" />
        <path
           d="m 8046.7033,6262.96 c -56,-29 -124,-75 -111,-75 19,0 187,95 187,106 0,7 -15,2 -76,-31 z"
           id="path4743" />
        <path
           d="m 7947.7033,6277.96 c -3,-5 -2,-10 4,-10 5,0 13,5 16,10 3,6 2,10 -4,10 -5,0 -13,-4 -16,-10 z"
           id="path4745" />
        <path
           d="m 8192.7033,6247.96 c 0,-8 25,-20 41,-20 20,0 7,18 -16,22 -14,3 -25,2 -25,-2 z"
           id="path4747" />
        <path
           d="m 8192.7033,6202.96 c 0,-9 5,-15 11,-13 6,2 11,8 11,13 0,5 -5,11 -11,13 -6,2 -11,-4 -11,-13 z"
           id="path4749" />
        <path
           d="m 7746.7033,6136.96 c -3,-6 -20,-19 -38,-30 -42,-26 -17,-24 34,2 47,25 59,39 31,39 -11,0 -23,-5 -27,-11 z"
           id="path4755" />
        <path
           d="m 8137.7033,6097.96 c -10,-12 -34,-30 -52,-41 -18,-11 -43,-35 -55,-52 l -23,-32 40,31 c 69,55 130,113 119,114 -6,0 -19,-9 -29,-20 z"
           id="path4757" />
        <path
           d="m 8091.7033,5983.96 c -51,-55 -117,-162 -106,-172 2,-2 20,22 40,53 45,71 96,132 97,116 0,-7 -9,-35 -19,-63 -21,-55 -20,-66 3,-22 13,25 48,144 43,148 -1,0 -27,-26 -58,-60 z"
           id="path4761" />
        <path
           d="m 7709.7033,5979.96 c -19,-20 -23,-37 -7,-27 10,6 33,45 27,45 -2,0 -11,-8 -20,-18 z"
           id="path4763" />
        <path
           d="m 7800.7033,5789.96 c -10,-2 -18,-8 -18,-13 0,-13 27,-11 35,2 9,13 4,16 -17,11 z"
           id="path4775" />
        <path
           d="m 7862.7033,5777.96 c 0,-5 4,-10 9,-10 6,0 13,5 16,10 3,6 -1,10 -9,10 -9,0 -16,-4 -16,-10 z"
           id="path4777" />
        <path
           d="m 8027.7033,5777.96 c -3,-5 -1,-10 4,-10 6,0 11,5 11,10 0,6 -2,10 -4,10 -3,0 -8,-4 -11,-10 z"
           id="path4779" />
        <path
           d="m 7744.7033,5766.96 c 2,-6 8,-10 13,-10 5,0 11,4 13,10 2,6 -4,11 -13,11 -9,0 -15,-5 -13,-11 z"
           id="path4781" />
        <path
           d="m 7784.7033,5727.96 c 9,-13 16,-16 23,-9 7,7 5,13 -5,19 -24,15 -31,11 -18,-10 z"
           id="path4783" />
        <path
           d="m 7912.7033,5632.96 c -7,-9 -11,-18 -8,-20 3,-3 11,1 18,10 7,9 11,18 8,20 -3,3 -11,-1 -18,-10 z"
           id="path4793" />
      </g>
    </g>
  </g>
</svg>
